<svg width="279" height="130" viewBox="0 0 279 130" fill="none" xmlns="http://www.w3.org/2000/svg">
<path d="M66.584 89H60.896V72.56H66.584C69.112 72.56 70.84 73.2 71.768 74.48C72.696 75.76 73.16 77.768 73.16 80.504C73.16 81.896 73.064 83.08 72.872 84.056C72.696 85.016 72.376 85.888 71.912 86.672C71 88.224 69.224 89 66.584 89ZM70.4 80.504C70.4 78.52 70.152 77.088 69.656 76.208C69.16 75.328 68.136 74.888 66.584 74.888H63.56V86.648H66.584C68.168 86.648 69.224 86.064 69.752 84.896C70.008 84.304 70.176 83.672 70.256 83C70.352 82.328 70.4 81.496 70.4 80.504ZM84.503 86.84L85.175 86.768L85.223 88.712C83.399 89.08 81.783 89.264 80.375 89.264C78.599 89.264 77.319 88.776 76.535 87.8C75.767 86.824 75.383 85.264 75.383 83.12C75.383 78.864 77.119 76.736 80.591 76.736C83.951 76.736 85.631 78.568 85.631 82.232L85.463 84.104H78.023C78.039 85.096 78.255 85.824 78.671 86.288C79.087 86.752 79.863 86.984 80.999 86.984C82.135 86.984 83.303 86.936 84.503 86.84ZM83.063 82.088C83.063 80.904 82.871 80.08 82.487 79.616C82.119 79.136 81.487 78.896 80.591 78.896C79.695 78.896 79.039 79.144 78.623 79.64C78.223 80.136 78.015 80.952 77.999 82.088H83.063ZM88.2905 89V72.008H90.9065V89H88.2905ZM102.761 86.84L103.433 86.768L103.481 88.712C101.657 89.08 100.041 89.264 98.6328 89.264C96.8568 89.264 95.5768 88.776 94.7928 87.8C94.0248 86.824 93.6408 85.264 93.6408 83.12C93.6408 78.864 95.3768 76.736 98.8488 76.736C102.209 76.736 103.889 78.568 103.889 82.232L103.721 84.104H96.2808C96.2968 85.096 96.5128 85.824 96.9288 86.288C97.3448 86.752 98.1208 86.984 99.2568 86.984C100.393 86.984 101.561 86.936 102.761 86.84ZM101.321 82.088C101.321 80.904 101.129 80.08 100.745 79.616C100.377 79.136 99.7448 78.896 98.8488 78.896C97.9528 78.896 97.2968 79.144 96.8808 79.64C96.4808 80.136 96.2728 80.952 96.2568 82.088H101.321ZM112.86 79.232H109.548V84.512C109.548 85.488 109.62 86.136 109.764 86.456C109.908 86.776 110.276 86.936 110.868 86.936L112.836 86.864L112.956 88.952C111.884 89.16 111.068 89.264 110.508 89.264C109.148 89.264 108.212 88.952 107.7 88.328C107.204 87.704 106.956 86.528 106.956 84.8V79.232H105.42V77H106.956V73.52H109.548V77H112.86V79.232ZM123.55 86.84L124.222 86.768L124.27 88.712C122.446 89.08 120.83 89.264 119.422 89.264C117.646 89.264 116.366 88.776 115.582 87.8C114.814 86.824 114.43 85.264 114.43 83.12C114.43 78.864 116.166 76.736 119.638 76.736C122.998 76.736 124.678 78.568 124.678 82.232L124.51 84.104H117.07C117.086 85.096 117.302 85.824 117.718 86.288C118.134 86.752 118.91 86.984 120.046 86.984C121.182 86.984 122.35 86.936 123.55 86.84ZM122.11 82.088C122.11 80.904 121.918 80.08 121.534 79.616C121.166 79.136 120.534 78.896 119.638 78.896C118.742 78.896 118.086 79.144 117.67 79.64C117.27 80.136 117.062 80.952 117.046 82.088H122.11ZM138.299 89.264C135.899 89.264 134.267 88.6 133.403 87.272C132.555 85.944 132.131 83.76 132.131 80.72C132.131 77.68 132.563 75.52 133.427 74.24C134.291 72.944 135.915 72.296 138.299 72.296C139.723 72.296 141.291 72.496 143.003 72.896L142.907 75.056C141.467 74.8 140.027 74.672 138.587 74.672C137.147 74.672 136.171 75.104 135.659 75.968C135.147 76.816 134.891 78.424 134.891 80.792C134.891 83.144 135.139 84.752 135.635 85.616C136.131 86.464 137.099 86.888 138.539 86.888C139.979 86.888 141.435 86.768 142.907 86.528L142.979 88.736C141.331 89.088 139.771 89.264 138.299 89.264ZM145.959 78.296C146.791 77.256 148.167 76.736 150.087 76.736C152.007 76.736 153.375 77.256 154.191 78.296C155.023 79.336 155.439 80.896 155.439 82.976C155.439 85.056 155.039 86.624 154.239 87.68C153.439 88.736 152.055 89.264 150.087 89.264C148.119 89.264 146.735 88.736 145.935 87.68C145.135 86.624 144.735 85.056 144.735 82.976C144.735 80.896 145.143 79.336 145.959 78.296ZM147.927 86.096C148.295 86.736 149.015 87.056 150.087 87.056C151.159 87.056 151.879 86.736 152.247 86.096C152.615 85.456 152.799 84.408 152.799 82.952C152.799 81.496 152.599 80.464 152.199 79.856C151.815 79.248 151.111 78.944 150.087 78.944C149.063 78.944 148.351 79.248 147.951 79.856C147.567 80.464 147.375 81.496 147.375 82.952C147.375 84.408 147.559 85.456 147.927 86.096ZM160.653 89H158.037V77H160.629V77.744C161.797 77.072 162.901 76.736 163.941 76.736C165.541 76.736 166.629 77.192 167.205 78.104C167.797 79 168.093 80.488 168.093 82.568V89H165.501V82.64C165.501 81.344 165.357 80.424 165.069 79.88C164.797 79.336 164.229 79.064 163.365 79.064C162.549 79.064 161.765 79.224 161.013 79.544L160.653 79.688V89ZM177.595 79.232H174.283V84.512C174.283 85.488 174.355 86.136 174.499 86.456C174.643 86.776 175.011 86.936 175.603 86.936L177.571 86.864L177.691 88.952C176.619 89.16 175.803 89.264 175.243 89.264C173.883 89.264 172.947 88.952 172.435 88.328C171.939 87.704 171.691 86.528 171.691 84.8V79.232H170.155V77H171.691V73.52H174.283V77H177.595V79.232ZM188.62 80.696V86.168C188.636 86.52 188.724 86.784 188.884 86.96C189.06 87.12 189.324 87.224 189.676 87.272L189.604 89.264C188.228 89.264 187.164 88.968 186.412 88.376C185.132 88.968 183.844 89.264 182.548 89.264C180.164 89.264 178.972 87.992 178.972 85.448C178.972 84.232 179.292 83.352 179.932 82.808C180.588 82.264 181.588 81.936 182.932 81.824L186.028 81.56V80.696C186.028 80.056 185.884 79.608 185.596 79.352C185.324 79.096 184.916 78.968 184.372 78.968C183.348 78.968 182.068 79.032 180.532 79.16L179.764 79.208L179.668 77.36C181.412 76.944 183.012 76.736 184.468 76.736C185.94 76.736 186.996 77.056 187.636 77.696C188.292 78.32 188.62 79.32 188.62 80.696ZM183.244 83.672C182.14 83.768 181.588 84.368 181.588 85.472C181.588 86.576 182.076 87.128 183.052 87.128C183.852 87.128 184.7 87 185.596 86.744L186.028 86.6V83.408L183.244 83.672ZM196.392 76.736C197.24 76.736 198.24 76.848 199.392 77.072L199.992 77.192L199.896 79.256C198.632 79.128 197.696 79.064 197.088 79.064C195.872 79.064 195.056 79.336 194.64 79.88C194.224 80.424 194.016 81.448 194.016 82.952C194.016 84.456 194.216 85.496 194.616 86.072C195.016 86.648 195.848 86.936 197.112 86.936L199.92 86.744L199.992 88.832C198.376 89.12 197.16 89.264 196.344 89.264C194.52 89.264 193.232 88.776 192.48 87.8C191.744 86.808 191.376 85.192 191.376 82.952C191.376 80.712 191.768 79.12 192.552 78.176C193.336 77.216 194.616 76.736 196.392 76.736ZM208.978 79.232H205.666V84.512C205.666 85.488 205.738 86.136 205.882 86.456C206.026 86.776 206.394 86.936 206.986 86.936L208.954 86.864L209.074 88.952C208.002 89.16 207.186 89.264 206.626 89.264C205.266 89.264 204.33 88.952 203.818 88.328C203.322 87.704 203.074 86.528 203.074 84.8V79.232H201.538V77H203.074V73.52H205.666V77H208.978V79.232ZM219.451 79.472C217.563 79.216 216.195 79.088 215.347 79.088C214.499 79.088 213.907 79.192 213.571 79.4C213.251 79.592 213.091 79.904 213.091 80.336C213.091 80.768 213.267 81.072 213.619 81.248C213.987 81.424 214.835 81.632 216.163 81.872C217.507 82.096 218.459 82.456 219.019 82.952C219.579 83.448 219.859 84.328 219.859 85.592C219.859 86.856 219.451 87.784 218.635 88.376C217.835 88.968 216.659 89.264 215.107 89.264C214.131 89.264 212.899 89.128 211.411 88.856L210.667 88.736L210.763 86.552C212.683 86.808 214.067 86.936 214.915 86.936C215.763 86.936 216.363 86.832 216.715 86.624C217.083 86.416 217.267 86.072 217.267 85.592C217.267 85.112 217.091 84.784 216.739 84.608C216.403 84.416 215.579 84.216 214.267 84.008C212.971 83.784 212.019 83.44 211.411 82.976C210.803 82.512 210.499 81.664 210.499 80.432C210.499 79.2 210.915 78.28 211.747 77.672C212.595 77.064 213.675 76.76 214.987 76.76C216.011 76.76 217.267 76.888 218.755 77.144L219.499 77.288L219.451 79.472Z" fill="#1F2633"/>
<path opacity="0.8" d="M5.20699 115.218C3.68299 115.218 2.92099 115.752 2.92099 116.82C2.92099 117.372 3.10099 117.768 3.46099 118.008C3.82099 118.236 4.61299 118.524 5.83699 118.872C7.07299 119.208 7.94299 119.616 8.44699 120.096C8.95099 120.564 9.20299 121.308 9.20299 122.328C9.20299 123.624 8.83099 124.596 8.08699 125.244C7.35499 125.88 6.35299 126.198 5.08099 126.198C4.06099 126.198 2.93299 126.078 1.69699 125.838L1.04899 125.712L1.24699 124.11C2.86699 124.326 4.10299 124.434 4.95499 124.434C6.44299 124.434 7.18699 123.774 7.18699 122.454C7.18699 121.938 7.01899 121.56 6.68299 121.32C6.34699 121.068 5.59099 120.798 4.41499 120.51C3.23899 120.21 2.36299 119.802 1.78699 119.286C1.21099 118.77 0.922992 117.954 0.922992 116.838C0.922992 115.722 1.28299 114.882 2.00299 114.318C2.73499 113.742 3.74299 113.454 5.02699 113.454C5.95099 113.454 7.04299 113.562 8.30299 113.778L8.93299 113.886L8.77099 115.506C7.09099 115.314 5.90299 115.218 5.20699 115.218ZM16.5824 117H18.5264V126H16.5824V125.442C15.7064 125.946 14.8964 126.198 14.1524 126.198C12.9164 126.198 12.0884 125.868 11.6684 125.208C11.2484 124.536 11.0384 123.366 11.0384 121.698V117H13.0004V121.716C13.0004 122.796 13.0904 123.522 13.2704 123.894C13.4504 124.266 13.8704 124.452 14.5304 124.452C15.1784 124.452 15.7724 124.332 16.3124 124.092L16.5824 123.984V117ZM20.9019 126V117H22.8459V118.08C23.8659 117.42 24.8859 116.994 25.9059 116.802V118.764C24.8739 118.968 23.9919 119.232 23.2599 119.556L22.8639 119.718V126H20.9019ZM33.7435 124.38L34.2475 124.326L34.2835 125.784C32.9155 126.06 31.7035 126.198 30.6475 126.198C29.3155 126.198 28.3555 125.832 27.7675 125.1C27.1915 124.368 26.9035 123.198 26.9035 121.59C26.9035 118.398 28.2055 116.802 30.8095 116.802C33.3295 116.802 34.5895 118.176 34.5895 120.924L34.4635 122.328H28.8835C28.8955 123.072 29.0575 123.618 29.3695 123.966C29.6815 124.314 30.2635 124.488 31.1155 124.488C31.9675 124.488 32.8435 124.452 33.7435 124.38ZM32.6635 120.816C32.6635 119.928 32.5195 119.31 32.2315 118.962C31.9555 118.602 31.4815 118.422 30.8095 118.422C30.1375 118.422 29.6455 118.608 29.3335 118.98C29.0335 119.352 28.8775 119.964 28.8655 120.816H32.6635ZM39.6032 117H41.5292L43.4372 124.326H43.9232L45.8312 117H47.7752L44.3552 129.87H42.4292L43.5092 126H41.9612L39.6032 117ZM49.6183 117.972C50.2423 117.192 51.2743 116.802 52.7143 116.802C54.1543 116.802 55.1803 117.192 55.7923 117.972C56.4163 118.752 56.7283 119.922 56.7283 121.482C56.7283 123.042 56.4283 124.218 55.8283 125.01C55.2283 125.802 54.1903 126.198 52.7143 126.198C51.2383 126.198 50.2003 125.802 49.6003 125.01C49.0003 124.218 48.7003 123.042 48.7003 121.482C48.7003 119.922 49.0063 118.752 49.6183 117.972ZM51.0943 123.822C51.3703 124.302 51.9103 124.542 52.7143 124.542C53.5183 124.542 54.0583 124.302 54.3343 123.822C54.6103 123.342 54.7483 122.556 54.7483 121.464C54.7483 120.372 54.5983 119.598 54.2983 119.142C54.0103 118.686 53.4823 118.458 52.7143 118.458C51.9463 118.458 51.4123 118.686 51.1123 119.142C50.8243 119.598 50.6803 120.372 50.6803 121.464C50.6803 122.556 50.8183 123.342 51.0943 123.822ZM64.1313 117H66.0753V126H64.1313V125.442C63.2553 125.946 62.4453 126.198 61.7013 126.198C60.4653 126.198 59.6373 125.868 59.2173 125.208C58.7973 124.536 58.5873 123.366 58.5873 121.698V117H60.5493V121.716C60.5493 122.796 60.6393 123.522 60.8193 123.894C60.9993 124.266 61.4193 124.452 62.0793 124.452C62.7273 124.452 63.3213 124.332 63.8613 124.092L64.1313 123.984V117ZM71.7038 117H73.6298L75.0518 124.326H75.4118L77.1218 117.18H79.1378L80.8478 124.326H81.2078L82.6118 117H84.5558L82.6478 126H79.5338L78.1298 119.826L76.7258 126H73.6118L71.7038 117ZM92.8822 119.772V123.876C92.8942 124.14 92.9602 124.338 93.0802 124.47C93.2122 124.59 93.4102 124.668 93.6742 124.704L93.6202 126.198C92.5882 126.198 91.7902 125.976 91.2262 125.532C90.2662 125.976 89.3002 126.198 88.3282 126.198C86.5402 126.198 85.6462 125.244 85.6462 123.336C85.6462 122.424 85.8862 121.764 86.3662 121.356C86.8582 120.948 87.6082 120.702 88.6162 120.618L90.9382 120.42V119.772C90.9382 119.292 90.8302 118.956 90.6142 118.764C90.4102 118.572 90.1042 118.476 89.6962 118.476C88.9282 118.476 87.9682 118.524 86.8162 118.62L86.2402 118.656L86.1682 117.27C87.4762 116.958 88.6762 116.802 89.7682 116.802C90.8722 116.802 91.6642 117.042 92.1442 117.522C92.6362 117.99 92.8822 118.74 92.8822 119.772ZM88.8502 122.004C88.0222 122.076 87.6082 122.526 87.6082 123.354C87.6082 124.182 87.9742 124.596 88.7062 124.596C89.3062 124.596 89.9422 124.5 90.6142 124.308L90.9382 124.2V121.806L88.8502 122.004ZM97.3072 126H95.3452V117H97.2892V117.558C98.1652 117.054 98.9932 116.802 99.7732 116.802C100.973 116.802 101.789 117.144 102.221 117.828C102.665 118.5 102.887 119.616 102.887 121.176V126H100.943V121.23C100.943 120.258 100.835 119.568 100.619 119.16C100.415 118.752 99.9892 118.548 99.3412 118.548C98.7292 118.548 98.1412 118.668 97.5772 118.908L97.3072 119.016V126ZM110.013 118.674H107.529V122.634C107.529 123.366 107.583 123.852 107.691 124.092C107.799 124.332 108.075 124.452 108.519 124.452L109.995 124.398L110.085 125.964C109.281 126.12 108.669 126.198 108.249 126.198C107.229 126.198 106.527 125.964 106.143 125.496C105.771 125.028 105.585 124.146 105.585 122.85V118.674H104.433V117H105.585V114.39H107.529V117H110.013V118.674ZM122.922 113.256V126H120.978V125.532C120.102 125.976 119.298 126.198 118.566 126.198C117.39 126.198 116.526 125.844 115.974 125.136C115.434 124.428 115.164 123.24 115.164 121.572C115.164 119.904 115.464 118.692 116.064 117.936C116.676 117.18 117.624 116.802 118.908 116.802C119.34 116.802 120.024 116.88 120.96 117.036V113.256H122.922ZM120.654 124.128L120.96 124.002V118.674C120.24 118.554 119.574 118.494 118.962 118.494C117.75 118.494 117.144 119.502 117.144 121.518C117.144 122.622 117.282 123.39 117.558 123.822C117.846 124.242 118.296 124.452 118.908 124.452C119.52 124.452 120.102 124.344 120.654 124.128ZM131.706 124.38L132.21 124.326L132.246 125.784C130.878 126.06 129.666 126.198 128.61 126.198C127.278 126.198 126.318 125.832 125.73 125.1C125.154 124.368 124.866 123.198 124.866 121.59C124.866 118.398 126.168 116.802 128.772 116.802C131.292 116.802 132.552 118.176 132.552 120.924L132.426 122.328H126.846C126.858 123.072 127.02 123.618 127.332 123.966C127.644 124.314 128.226 124.488 129.078 124.488C129.93 124.488 130.806 124.452 131.706 124.38ZM130.626 120.816C130.626 119.928 130.482 119.31 130.194 118.962C129.918 118.602 129.444 118.422 128.772 118.422C128.1 118.422 127.608 118.608 127.296 118.98C126.996 119.352 126.84 119.964 126.828 120.816H130.626ZM134.547 126V113.256H136.509V126H134.547ZM145.4 124.38L145.904 124.326L145.94 125.784C144.572 126.06 143.36 126.198 142.304 126.198C140.972 126.198 140.012 125.832 139.424 125.1C138.848 124.368 138.56 123.198 138.56 121.59C138.56 118.398 139.862 116.802 142.466 116.802C144.986 116.802 146.246 118.176 146.246 120.924L146.12 122.328H140.54C140.552 123.072 140.714 123.618 141.026 123.966C141.338 124.314 141.92 124.488 142.772 124.488C143.624 124.488 144.5 124.452 145.4 124.38ZM144.32 120.816C144.32 119.928 144.176 119.31 143.888 118.962C143.612 118.602 143.138 118.422 142.466 118.422C141.794 118.422 141.302 118.608 140.99 118.98C140.69 119.352 140.534 119.964 140.522 120.816H144.32ZM152.974 118.674H150.49V122.634C150.49 123.366 150.544 123.852 150.652 124.092C150.76 124.332 151.036 124.452 151.48 124.452L152.956 124.398L153.046 125.964C152.242 126.12 151.63 126.198 151.21 126.198C150.19 126.198 149.488 125.964 149.104 125.496C148.732 125.028 148.546 124.146 148.546 122.85V118.674H147.394V117H148.546V114.39H150.49V117H152.974V118.674ZM160.992 124.38L161.496 124.326L161.532 125.784C160.164 126.06 158.952 126.198 157.896 126.198C156.564 126.198 155.604 125.832 155.016 125.1C154.44 124.368 154.152 123.198 154.152 121.59C154.152 118.398 155.454 116.802 158.058 116.802C160.578 116.802 161.838 118.176 161.838 120.924L161.712 122.328H156.132C156.144 123.072 156.306 123.618 156.618 123.966C156.93 124.314 157.512 124.488 158.364 124.488C159.216 124.488 160.092 124.452 160.992 124.38ZM159.912 120.816C159.912 119.928 159.768 119.31 159.48 118.962C159.204 118.602 158.73 118.422 158.058 118.422C157.386 118.422 156.894 118.608 156.582 118.98C156.282 119.352 156.126 119.964 156.114 120.816H159.912ZM172.521 118.674H170.037V122.634C170.037 123.366 170.091 123.852 170.199 124.092C170.307 124.332 170.583 124.452 171.027 124.452L172.503 124.398L172.593 125.964C171.789 126.12 171.177 126.198 170.757 126.198C169.737 126.198 169.035 125.964 168.651 125.496C168.279 125.028 168.093 124.146 168.093 122.85V118.674H166.941V117H168.093V114.39H170.037V117H172.521V118.674ZM176.092 126H174.13V113.256H176.092V117.468C176.98 117.024 177.802 116.802 178.558 116.802C179.758 116.802 180.574 117.144 181.006 117.828C181.45 118.5 181.672 119.616 181.672 121.176V126H179.71V121.23C179.71 120.258 179.608 119.568 179.404 119.16C179.2 118.752 178.768 118.548 178.108 118.548C177.532 118.548 176.956 118.644 176.38 118.836L176.092 118.944V126ZM183.957 126V117H185.919V126H183.957ZM183.957 115.47V113.4H185.919V115.47H183.957ZM194.544 118.854C193.128 118.662 192.102 118.566 191.466 118.566C190.83 118.566 190.386 118.644 190.134 118.8C189.894 118.944 189.774 119.178 189.774 119.502C189.774 119.826 189.906 120.054 190.17 120.186C190.446 120.318 191.082 120.474 192.078 120.654C193.086 120.822 193.8 121.092 194.22 121.464C194.64 121.836 194.85 122.496 194.85 123.444C194.85 124.392 194.544 125.088 193.932 125.532C193.332 125.976 192.45 126.198 191.286 126.198C190.554 126.198 189.63 126.096 188.514 125.892L187.956 125.802L188.028 124.164C189.468 124.356 190.506 124.452 191.142 124.452C191.778 124.452 192.228 124.374 192.492 124.218C192.768 124.062 192.906 123.804 192.906 123.444C192.906 123.084 192.774 122.838 192.51 122.706C192.258 122.562 191.64 122.412 190.656 122.256C189.684 122.088 188.97 121.83 188.514 121.482C188.058 121.134 187.83 120.498 187.83 119.574C187.83 118.65 188.142 117.96 188.766 117.504C189.402 117.048 190.212 116.82 191.196 116.82C191.964 116.82 192.906 116.916 194.022 117.108L194.58 117.216L194.544 118.854ZM205.065 126.198C203.265 126.198 202.041 125.7 201.393 124.704C200.757 123.708 200.439 122.07 200.439 119.79C200.439 117.51 200.763 115.89 201.411 114.93C202.059 113.958 203.277 113.472 205.065 113.472C206.133 113.472 207.309 113.622 208.593 113.922L208.521 115.542C207.441 115.35 206.361 115.254 205.281 115.254C204.201 115.254 203.469 115.578 203.085 116.226C202.701 116.862 202.509 118.068 202.509 119.844C202.509 121.608 202.695 122.814 203.067 123.462C203.439 124.098 204.165 124.416 205.245 124.416C206.325 124.416 207.417 124.326 208.521 124.146L208.575 125.802C207.339 126.066 206.169 126.198 205.065 126.198ZM210.81 117.972C211.434 117.192 212.466 116.802 213.906 116.802C215.346 116.802 216.372 117.192 216.984 117.972C217.608 118.752 217.92 119.922 217.92 121.482C217.92 123.042 217.62 124.218 217.02 125.01C216.42 125.802 215.382 126.198 213.906 126.198C212.43 126.198 211.392 125.802 210.792 125.01C210.192 124.218 209.892 123.042 209.892 121.482C209.892 119.922 210.198 118.752 210.81 117.972ZM212.286 123.822C212.562 124.302 213.102 124.542 213.906 124.542C214.71 124.542 215.25 124.302 215.526 123.822C215.802 123.342 215.94 122.556 215.94 121.464C215.94 120.372 215.79 119.598 215.49 119.142C215.202 118.686 214.674 118.458 213.906 118.458C213.138 118.458 212.604 118.686 212.304 119.142C212.016 119.598 211.872 120.372 211.872 121.464C211.872 122.556 212.01 123.342 212.286 123.822ZM221.831 126H219.869V117H221.813V117.558C222.689 117.054 223.517 116.802 224.297 116.802C225.497 116.802 226.313 117.144 226.745 117.828C227.189 118.5 227.411 119.616 227.411 121.176V126H225.467V121.23C225.467 120.258 225.359 119.568 225.143 119.16C224.939 118.752 224.513 118.548 223.865 118.548C223.253 118.548 222.665 118.668 222.101 118.908L221.831 119.016V126ZM234.537 118.674H232.053V122.634C232.053 123.366 232.107 123.852 232.215 124.092C232.323 124.332 232.599 124.452 233.043 124.452L234.519 124.398L234.609 125.964C233.805 126.12 233.193 126.198 232.773 126.198C231.753 126.198 231.051 125.964 230.667 125.496C230.295 125.028 230.109 124.146 230.109 122.85V118.674H228.957V117H230.109V114.39H232.053V117H234.537V118.674ZM242.806 119.772V123.876C242.818 124.14 242.884 124.338 243.004 124.47C243.136 124.59 243.334 124.668 243.598 124.704L243.544 126.198C242.512 126.198 241.714 125.976 241.15 125.532C240.19 125.976 239.224 126.198 238.252 126.198C236.464 126.198 235.57 125.244 235.57 123.336C235.57 122.424 235.81 121.764 236.29 121.356C236.782 120.948 237.532 120.702 238.54 120.618L240.862 120.42V119.772C240.862 119.292 240.754 118.956 240.538 118.764C240.334 118.572 240.028 118.476 239.62 118.476C238.852 118.476 237.892 118.524 236.74 118.62L236.164 118.656L236.092 117.27C237.4 116.958 238.6 116.802 239.692 116.802C240.796 116.802 241.588 117.042 242.068 117.522C242.56 117.99 242.806 118.74 242.806 119.772ZM238.774 122.004C237.946 122.076 237.532 122.526 237.532 123.354C237.532 124.182 237.898 124.596 238.63 124.596C239.23 124.596 239.866 124.5 240.538 124.308L240.862 124.2V121.806L238.774 122.004ZM248.635 116.802C249.271 116.802 250.021 116.886 250.885 117.054L251.335 117.144L251.263 118.692C250.315 118.596 249.613 118.548 249.157 118.548C248.245 118.548 247.633 118.752 247.321 119.16C247.009 119.568 246.853 120.336 246.853 121.464C246.853 122.592 247.003 123.372 247.303 123.804C247.603 124.236 248.227 124.452 249.175 124.452L251.281 124.308L251.335 125.874C250.123 126.09 249.211 126.198 248.599 126.198C247.231 126.198 246.265 125.832 245.701 125.1C245.149 124.356 244.873 123.144 244.873 121.464C244.873 119.784 245.167 118.59 245.755 117.882C246.343 117.162 247.303 116.802 248.635 116.802ZM258.074 118.674H255.59V122.634C255.59 123.366 255.644 123.852 255.752 124.092C255.86 124.332 256.136 124.452 256.58 124.452L258.056 124.398L258.146 125.964C257.342 126.12 256.73 126.198 256.31 126.198C255.29 126.198 254.588 125.964 254.204 125.496C253.832 125.028 253.646 124.146 253.646 122.85V118.674H252.494V117H253.646V114.39H255.59V117H258.074V118.674ZM265.929 118.854C264.513 118.662 263.487 118.566 262.851 118.566C262.215 118.566 261.771 118.644 261.519 118.8C261.279 118.944 261.159 119.178 261.159 119.502C261.159 119.826 261.291 120.054 261.555 120.186C261.831 120.318 262.467 120.474 263.463 120.654C264.471 120.822 265.185 121.092 265.605 121.464C266.025 121.836 266.235 122.496 266.235 123.444C266.235 124.392 265.929 125.088 265.317 125.532C264.717 125.976 263.835 126.198 262.671 126.198C261.939 126.198 261.015 126.096 259.899 125.892L259.341 125.802L259.413 124.164C260.853 124.356 261.891 124.452 262.527 124.452C263.163 124.452 263.613 124.374 263.877 124.218C264.153 124.062 264.291 123.804 264.291 123.444C264.291 123.084 264.159 122.838 263.895 122.706C263.643 122.562 263.025 122.412 262.041 122.256C261.069 122.088 260.355 121.83 259.899 121.482C259.443 121.134 259.215 120.498 259.215 119.574C259.215 118.65 259.527 117.96 260.151 117.504C260.787 117.048 261.597 116.82 262.581 116.82C263.349 116.82 264.291 116.916 265.407 117.108L265.965 117.216L265.929 118.854ZM278.196 116.388C278.196 117.192 278.094 117.804 277.89 118.224C277.698 118.644 277.296 119.094 276.684 119.574C276.072 120.054 275.664 120.438 275.46 120.726C275.268 121.002 275.172 121.302 275.172 121.626V122.22H273.588C273.3 121.848 273.156 121.38 273.156 120.816C273.156 120.516 273.27 120.216 273.498 119.916C273.726 119.616 274.134 119.226 274.722 118.746C275.31 118.254 275.7 117.876 275.892 117.612C276.084 117.336 276.18 116.976 276.18 116.532C276.18 115.656 275.544 115.218 274.272 115.218C273.552 115.218 272.796 115.302 272.004 115.47L271.59 115.56L271.482 114.066C272.598 113.67 273.612 113.472 274.524 113.472C275.784 113.472 276.708 113.706 277.296 114.174C277.896 114.63 278.196 115.368 278.196 116.388ZM273.282 126V123.48H275.37V126H273.282Z" fill="#2DA5FC"/>
<circle cx="139.5" cy="22.5" r="22.5" fill="#2DA5FC" fill-opacity="0.5"/>
<path d="M132.143 19.7143H145.857V31C145.857 31.5523 145.409 32 144.857 32H133.143C132.591 32 132.143 31.5523 132.143 31V19.7143Z" stroke="black" stroke-width="2"/>
<path d="M132.143 20.5714H145.857V15C145.857 14.4477 145.409 14 144.857 14H133.143C132.591 14 132.143 14.4477 132.143 15V20.5714Z" stroke="black" stroke-width="2"/>
<rect x="128" y="18.7143" width="22" height="2.85714" fill="black"/>
<rect x="140.572" y="20.1429" width="11.4286" height="3.14286" transform="rotate(90 140.572 20.1429)" fill="black"/>
</svg>
