<svg width="376" height="80" viewBox="0 0 376 80" fill="none" xmlns="http://www.w3.org/2000/svg">
<g filter="url(#filter0_d_26_1162)">
<rect x="218" y="19" width="137" height="40" rx="10" fill="white"/>
</g>
<path opacity="0.8" d="M268.53 45V32.544H275.982V33.768H269.916V38.628H275.046V39.852H269.916V45H268.53ZM277.771 45V36H279.121V45H277.771ZM277.771 33.966V32.4H279.121V33.966H277.771ZM281.816 45V32.076H283.166V45H281.816ZM290.536 37.17H287.674V41.472C287.674 42.504 287.746 43.182 287.89 43.506C288.046 43.83 288.406 43.992 288.97 43.992L290.572 43.884L290.662 45C289.858 45.132 289.246 45.198 288.826 45.198C287.89 45.198 287.242 44.97 286.882 44.514C286.522 44.058 286.342 43.188 286.342 41.904V37.17H285.064V36H286.342V33.246H287.674V36H290.536V37.17ZM298.305 43.884L298.827 43.83L298.863 44.892C297.495 45.084 296.325 45.18 295.353 45.18C294.057 45.18 293.139 44.808 292.599 44.064C292.059 43.308 291.789 42.138 291.789 40.554C291.789 37.398 293.043 35.82 295.551 35.82C296.763 35.82 297.669 36.162 298.269 36.846C298.869 37.518 299.169 38.58 299.169 40.032L299.097 41.058H293.157C293.157 42.054 293.337 42.792 293.697 43.272C294.057 43.752 294.681 43.992 295.569 43.992C296.469 43.992 297.381 43.956 298.305 43.884ZM297.819 39.978C297.819 38.874 297.639 38.094 297.279 37.638C296.931 37.182 296.355 36.954 295.551 36.954C294.759 36.954 294.159 37.194 293.751 37.674C293.355 38.154 293.151 38.922 293.139 39.978H297.819ZM301.273 45V36H302.605V37.224C303.649 36.504 304.747 36.03 305.899 35.802V37.17C305.395 37.266 304.867 37.416 304.315 37.62C303.775 37.824 303.361 38.004 303.073 38.16L302.623 38.394V45H301.273ZM310.321 37.026C309.013 37.026 308.359 37.482 308.359 38.394C308.359 38.814 308.509 39.114 308.809 39.294C309.109 39.462 309.793 39.642 310.861 39.834C311.929 40.014 312.685 40.272 313.129 40.608C313.573 40.944 313.795 41.574 313.795 42.498C313.795 43.422 313.495 44.1 312.895 44.532C312.307 44.964 311.443 45.18 310.303 45.18C309.559 45.18 308.683 45.096 307.675 44.928L307.135 44.838L307.207 43.668C308.575 43.872 309.607 43.974 310.303 43.974C310.999 43.974 311.527 43.866 311.887 43.65C312.259 43.422 312.445 43.05 312.445 42.534C312.445 42.006 312.289 41.652 311.977 41.472C311.665 41.28 310.981 41.1 309.925 40.932C308.869 40.764 308.119 40.518 307.675 40.194C307.231 39.87 307.009 39.27 307.009 38.394C307.009 37.518 307.315 36.87 307.927 36.45C308.551 36.03 309.325 35.82 310.249 35.82C310.981 35.82 311.899 35.904 313.003 36.072L313.507 36.162L313.471 37.314C312.139 37.122 311.089 37.026 310.321 37.026Z" fill="black"/>
<path d="M344 36.332L342.59 35L338 39.3266L333.41 35L332 36.332L338 42L344 36.332Z" fill="black"/>
<path d="M323 29V49" stroke="#7D7D7D" stroke-width="2"/>
<path d="M241 44H245V42H241V44ZM234 32V34H252V32H234ZM237 39H249V37H237V39Z" fill="black"/>
<g filter="url(#filter1_d_26_1162)">
<rect x="19" y="19" width="169" height="40" rx="10" fill="white"/>
</g>
<path d="M50 31H49V29H47V31H39V29H37V31H36C34.89 31 34.01 31.9 34.01 33L34 47C34 48.1 34.89 49 36 49H50C51.1 49 52 48.1 52 47V33C52 31.9 51.1 31 50 31ZM50 47H36V37H50V47ZM50 35H36V33H50V35ZM40 41H38V39H40V41ZM44 41H42V39H44V41ZM48 41H46V39H48V41ZM40 45H38V43H40V45ZM44 45H42V43H44V45ZM48 45H46V43H48V45Z" fill="black"/>
<g filter="url(#filter2_d_26_1162)">
<path d="M176 37.332L174.59 36L170 40.3266L165.41 36L164 37.332L170 43L176 37.332Z" fill="black"/>
</g>
<path d="M67.52 33.3C65.52 33.3 64.52 34.0533 64.52 35.56C64.52 36.4 64.7467 36.98 65.2 37.3C65.6667 37.6067 66.6 37.92 68 38.24C69.4133 38.5467 70.4133 38.9533 71 39.46C71.5867 39.9533 71.88 40.7733 71.88 41.92C71.88 44.76 70.4067 46.18 67.46 46.18C66.4867 46.18 65.2667 46.0667 63.8 45.84L63.08 45.74L63.24 44.46C65.0533 44.7 66.4333 44.82 67.38 44.82C69.3533 44.82 70.34 43.8933 70.34 42.04C70.34 41.2933 70.12 40.76 69.68 40.44C69.2533 40.1067 68.4467 39.8267 67.26 39.6C65.7 39.2667 64.5933 38.84 63.94 38.32C63.2867 37.7867 62.96 36.9 62.96 35.66C62.96 33.18 64.4467 31.94 67.42 31.94C68.3933 31.94 69.56 32.04 70.92 32.24L71.6 32.34L71.46 33.64C69.6067 33.4133 68.2933 33.3 67.52 33.3ZM81.0798 44.76L81.6598 44.7L81.6998 45.88C80.1798 46.0933 78.8798 46.2 77.7998 46.2C76.3598 46.2 75.3398 45.7867 74.7398 44.96C74.1398 44.12 73.8398 42.82 73.8398 41.06C73.8398 37.5533 75.2332 35.8 78.0198 35.8C79.3665 35.8 80.3732 36.18 81.0398 36.94C81.7065 37.6867 82.0398 38.8667 82.0398 40.48L81.9598 41.62H75.3598C75.3598 42.7267 75.5598 43.5467 75.9598 44.08C76.3598 44.6133 77.0532 44.88 78.0398 44.88C79.0398 44.88 80.0532 44.84 81.0798 44.76ZM80.5398 40.42C80.5398 39.1933 80.3398 38.3267 79.9398 37.82C79.5532 37.3133 78.9132 37.06 78.0198 37.06C77.1398 37.06 76.4732 37.3267 76.0198 37.86C75.5798 38.3933 75.3532 39.2467 75.3398 40.42H80.5398ZM84.4975 46V31.64H85.9975V46H84.4975ZM95.8064 44.76L96.3864 44.7L96.4264 45.88C94.9064 46.0933 93.6064 46.2 92.5264 46.2C91.0864 46.2 90.0664 45.7867 89.4664 44.96C88.8664 44.12 88.5664 42.82 88.5664 41.06C88.5664 37.5533 89.9597 35.8 92.7464 35.8C94.0931 35.8 95.0997 36.18 95.7664 36.94C96.4331 37.6867 96.7664 38.8667 96.7664 40.48L96.6864 41.62H90.0864C90.0864 42.7267 90.2864 43.5467 90.6864 44.08C91.0864 44.6133 91.7797 44.88 92.7664 44.88C93.7664 44.88 94.7797 44.84 95.8064 44.76ZM95.2664 40.42C95.2664 39.1933 95.0664 38.3267 94.6664 37.82C94.2797 37.3133 93.6397 37.06 92.7464 37.06C91.8664 37.06 91.1997 37.3267 90.7464 37.86C90.3064 38.3933 90.0797 39.2467 90.0664 40.42H95.2664ZM102.844 35.8C103.284 35.8 104.031 35.88 105.084 36.04L105.564 36.1L105.504 37.32C104.437 37.2 103.651 37.14 103.144 37.14C102.011 37.14 101.237 37.4133 100.824 37.96C100.424 38.4933 100.224 39.4933 100.224 40.96C100.224 42.4133 100.411 43.4267 100.784 44C101.171 44.5733 101.964 44.86 103.164 44.86L105.524 44.68L105.584 45.92C104.344 46.1067 103.417 46.2 102.804 46.2C101.244 46.2 100.164 45.8 99.5641 45C98.9774 44.2 98.6841 42.8533 98.6841 40.96C98.6841 39.0533 99.0041 37.72 99.6441 36.96C100.284 36.1867 101.351 35.8 102.844 35.8ZM112.995 37.3H109.815V42.08C109.815 43.2267 109.895 43.98 110.055 44.34C110.228 44.7 110.628 44.88 111.255 44.88L113.035 44.76L113.135 46C112.242 46.1467 111.562 46.22 111.095 46.22C110.055 46.22 109.335 45.9667 108.935 45.46C108.535 44.9533 108.335 43.9867 108.335 42.56V37.3H106.915V36H108.335V32.94H109.815V36H112.995V37.3ZM124.421 46H119.481V32.16H124.421C126.675 32.16 128.168 33.0533 128.901 34.84C129.328 35.8667 129.541 37.2133 129.541 38.88C129.541 42.36 128.675 44.5533 126.941 45.46C126.248 45.82 125.408 46 124.421 46ZM127.961 38.88C127.961 36.2267 127.368 34.5733 126.181 33.92C125.701 33.6533 125.115 33.52 124.421 33.52H121.021V44.64H124.421C126.781 44.64 127.961 42.72 127.961 38.88ZM139.172 39.02V44.14C139.212 44.6333 139.599 44.9267 140.332 45.02L140.272 46.2C139.219 46.2 138.425 45.9333 137.892 45.4C136.692 45.9333 135.492 46.2 134.292 46.2C133.372 46.2 132.672 45.94 132.192 45.42C131.712 44.9 131.472 44.1533 131.472 43.18C131.472 42.2067 131.719 41.4933 132.212 41.04C132.705 40.5733 133.479 40.2867 134.532 40.18L137.672 39.88V39.02C137.672 38.34 137.525 37.8533 137.232 37.56C136.939 37.2667 136.539 37.12 136.032 37.12C134.965 37.12 133.859 37.1867 132.712 37.32L132.092 37.38L132.032 36.24C133.499 35.9467 134.799 35.8 135.932 35.8C137.065 35.8 137.885 36.06 138.392 36.58C138.912 37.1 139.172 37.9133 139.172 39.02ZM133.012 43.1C133.012 44.3267 133.519 44.94 134.532 44.94C135.439 44.94 136.332 44.7867 137.212 44.48L137.672 44.32V41.02L134.712 41.3C134.112 41.3533 133.679 41.5267 133.412 41.82C133.145 42.1133 133.012 42.54 133.012 43.1ZM147.311 37.3H144.131V42.08C144.131 43.2267 144.211 43.98 144.371 44.34C144.545 44.7 144.945 44.88 145.571 44.88L147.351 44.76L147.451 46C146.558 46.1467 145.878 46.22 145.411 46.22C144.371 46.22 143.651 45.9667 143.251 45.46C142.851 44.9533 142.651 43.9867 142.651 42.56V37.3H141.231V36H142.651V32.94H144.131V36H147.311V37.3ZM155.943 44.76L156.523 44.7L156.563 45.88C155.043 46.0933 153.743 46.2 152.663 46.2C151.223 46.2 150.203 45.7867 149.603 44.96C149.003 44.12 148.703 42.82 148.703 41.06C148.703 37.5533 150.096 35.8 152.883 35.8C154.23 35.8 155.236 36.18 155.903 36.94C156.57 37.6867 156.903 38.8667 156.903 40.48L156.823 41.62H150.223C150.223 42.7267 150.423 43.5467 150.823 44.08C151.223 44.6133 151.916 44.88 152.903 44.88C153.903 44.88 154.916 44.84 155.943 44.76ZM155.403 40.42C155.403 39.1933 155.203 38.3267 154.803 37.82C154.416 37.3133 153.776 37.06 152.883 37.06C152.003 37.06 151.336 37.3267 150.883 37.86C150.443 38.3933 150.216 39.2467 150.203 40.42H155.403Z" fill="#333333"/>
<defs>
<filter id="filter0_d_26_1162" x="199" y="0" width="177" height="80" filterUnits="userSpaceOnUse" color-interpolation-filters="sRGB">
<feFlood flood-opacity="0" result="BackgroundImageFix"/>
<feColorMatrix in="SourceAlpha" type="matrix" values="0 0 0 0 0 0 0 0 0 0 0 0 0 0 0 0 0 0 127 0" result="hardAlpha"/>
<feOffset dx="1" dy="1"/>
<feGaussianBlur stdDeviation="10"/>
<feComposite in2="hardAlpha" operator="out"/>
<feColorMatrix type="matrix" values="0 0 0 0 0 0 0 0 0 0 0 0 0 0 0 0 0 0 0.1 0"/>
<feBlend mode="normal" in2="BackgroundImageFix" result="effect1_dropShadow_26_1162"/>
<feBlend mode="normal" in="SourceGraphic" in2="effect1_dropShadow_26_1162" result="shape"/>
</filter>
<filter id="filter1_d_26_1162" x="0" y="0" width="209" height="80" filterUnits="userSpaceOnUse" color-interpolation-filters="sRGB">
<feFlood flood-opacity="0" result="BackgroundImageFix"/>
<feColorMatrix in="SourceAlpha" type="matrix" values="0 0 0 0 0 0 0 0 0 0 0 0 0 0 0 0 0 0 127 0" result="hardAlpha"/>
<feOffset dx="1" dy="1"/>
<feGaussianBlur stdDeviation="10"/>
<feComposite in2="hardAlpha" operator="out"/>
<feColorMatrix type="matrix" values="0 0 0 0 0 0 0 0 0 0 0 0 0 0 0 0 0 0 0.1 0"/>
<feBlend mode="normal" in2="BackgroundImageFix" result="effect1_dropShadow_26_1162"/>
<feBlend mode="normal" in="SourceGraphic" in2="effect1_dropShadow_26_1162" result="shape"/>
</filter>
<filter id="filter2_d_26_1162" x="160" y="33" width="20" height="15" filterUnits="userSpaceOnUse" color-interpolation-filters="sRGB">
<feFlood flood-opacity="0" result="BackgroundImageFix"/>
<feColorMatrix in="SourceAlpha" type="matrix" values="0 0 0 0 0 0 0 0 0 0 0 0 0 0 0 0 0 0 127 0" result="hardAlpha"/>
<feOffset dy="1"/>
<feGaussianBlur stdDeviation="2"/>
<feComposite in2="hardAlpha" operator="out"/>
<feColorMatrix type="matrix" values="0 0 0 0 0 0 0 0 0 0 0 0 0 0 0 0 0 0 0.25 0"/>
<feBlend mode="normal" in2="BackgroundImageFix" result="effect1_dropShadow_26_1162"/>
<feBlend mode="normal" in="SourceGraphic" in2="effect1_dropShadow_26_1162" result="shape"/>
</filter>
</defs>
</svg>
