<svg width="175" height="112" viewBox="0 0 175 112" fill="none" xmlns="http://www.w3.org/2000/svg">
<path d="M7.584 102H1.896V85.56H7.584C10.112 85.56 11.84 86.2 12.768 87.48C13.696 88.76 14.16 90.768 14.16 93.504C14.16 94.896 14.064 96.08 13.872 97.056C13.696 98.016 13.376 98.888 12.912 99.672C12 101.224 10.224 102 7.584 102ZM11.4 93.504C11.4 91.52 11.152 90.088 10.656 89.208C10.16 88.328 9.136 87.888 7.584 87.888H4.56V99.648H7.584C9.168 99.648 10.224 99.064 10.752 97.896C11.008 97.304 11.176 96.672 11.256 96C11.352 95.328 11.4 94.496 11.4 93.504ZM25.503 99.84L26.175 99.768L26.223 101.712C24.399 102.08 22.783 102.264 21.375 102.264C19.599 102.264 18.319 101.776 17.535 100.8C16.767 99.824 16.383 98.264 16.383 96.12C16.383 91.864 18.119 89.736 21.591 89.736C24.951 89.736 26.631 91.568 26.631 95.232L26.463 97.104H19.023C19.039 98.096 19.255 98.824 19.671 99.288C20.087 99.752 20.863 99.984 21.999 99.984C23.135 99.984 24.303 99.936 25.503 99.84ZM24.063 95.088C24.063 93.904 23.871 93.08 23.487 92.616C23.119 92.136 22.487 91.896 21.591 91.896C20.695 91.896 20.039 92.144 19.623 92.64C19.223 93.136 19.015 93.952 18.999 95.088H24.063ZM29.2905 102V85.008H31.9065V102H29.2905ZM43.7608 99.84L44.4328 99.768L44.4808 101.712C42.6568 102.08 41.0408 102.264 39.6328 102.264C37.8568 102.264 36.5768 101.776 35.7928 100.8C35.0248 99.824 34.6408 98.264 34.6408 96.12C34.6408 91.864 36.3768 89.736 39.8488 89.736C43.2088 89.736 44.8888 91.568 44.8888 95.232L44.7208 97.104H37.2808C37.2968 98.096 37.5128 98.824 37.9288 99.288C38.3448 99.752 39.1208 99.984 40.2568 99.984C41.3928 99.984 42.5608 99.936 43.7608 99.84ZM42.3208 95.088C42.3208 93.904 42.1288 93.08 41.7448 92.616C41.3768 92.136 40.7448 91.896 39.8488 91.896C38.9528 91.896 38.2968 92.144 37.8808 92.64C37.4808 93.136 37.2728 93.952 37.2568 95.088H42.3208ZM53.8603 92.232H50.5483V97.512C50.5483 98.488 50.6203 99.136 50.7643 99.456C50.9083 99.776 51.2763 99.936 51.8683 99.936L53.8363 99.864L53.9563 101.952C52.8843 102.16 52.0683 102.264 51.5083 102.264C50.1483 102.264 49.2123 101.952 48.7003 101.328C48.2043 100.704 47.9563 99.528 47.9563 97.8V92.232H46.4203V90H47.9563V86.52H50.5483V90H53.8603V92.232ZM64.5499 99.84L65.2219 99.768L65.2699 101.712C63.4459 102.08 61.8299 102.264 60.4219 102.264C58.6459 102.264 57.3659 101.776 56.5819 100.8C55.8139 99.824 55.4299 98.264 55.4299 96.12C55.4299 91.864 57.1659 89.736 60.6379 89.736C63.9979 89.736 65.6779 91.568 65.6779 95.232L65.5099 97.104H58.0699C58.0859 98.096 58.3019 98.824 58.7179 99.288C59.1339 99.752 59.9099 99.984 61.0459 99.984C62.1819 99.984 63.3499 99.936 64.5499 99.84ZM63.1099 95.088C63.1099 93.904 62.9179 93.08 62.5339 92.616C62.1659 92.136 61.5339 91.896 60.6379 91.896C59.7419 91.896 59.0859 92.144 58.6699 92.64C58.2699 93.136 58.0619 93.952 58.0459 95.088H63.1099ZM77.9854 85.008V102H75.3934V101.376C74.2254 101.968 73.1534 102.264 72.1774 102.264C70.6094 102.264 69.4574 101.792 68.7214 100.848C68.0014 99.904 67.6414 98.32 67.6414 96.096C67.6414 93.872 68.0414 92.256 68.8414 91.248C69.6574 90.24 70.9214 89.736 72.6334 89.736C73.2094 89.736 74.1214 89.84 75.3694 90.048V85.008H77.9854ZM74.9614 99.504L75.3694 99.336V92.232C74.4094 92.072 73.5214 91.992 72.7054 91.992C71.0894 91.992 70.2814 93.336 70.2814 96.024C70.2814 97.496 70.4654 98.52 70.8334 99.096C71.2174 99.656 71.8174 99.936 72.6334 99.936C73.4494 99.936 74.2254 99.792 74.9614 99.504ZM92.2598 102.264C89.8598 102.264 88.2278 101.6 87.3638 100.272C86.5158 98.944 86.0918 96.76 86.0918 93.72C86.0918 90.68 86.5238 88.52 87.3878 87.24C88.2518 85.944 89.8758 85.296 92.2598 85.296C93.6838 85.296 95.2518 85.496 96.9637 85.896L96.8678 88.056C95.4278 87.8 93.9878 87.672 92.5478 87.672C91.1078 87.672 90.1318 88.104 89.6198 88.968C89.1078 89.816 88.8518 91.424 88.8518 93.792C88.8518 96.144 89.0998 97.752 89.5958 98.616C90.0918 99.464 91.0598 99.888 92.4998 99.888C93.9398 99.888 95.3958 99.768 96.8678 99.528L96.9398 101.736C95.2918 102.088 93.7318 102.264 92.2598 102.264ZM99.9195 91.296C100.752 90.256 102.128 89.736 104.048 89.736C105.968 89.736 107.336 90.256 108.152 91.296C108.984 92.336 109.4 93.896 109.4 95.976C109.4 98.056 109 99.624 108.2 100.68C107.4 101.736 106.016 102.264 104.048 102.264C102.08 102.264 100.696 101.736 99.8955 100.68C99.0955 99.624 98.6955 98.056 98.6955 95.976C98.6955 93.896 99.1035 92.336 99.9195 91.296ZM101.888 99.096C102.256 99.736 102.976 100.056 104.048 100.056C105.12 100.056 105.84 99.736 106.208 99.096C106.576 98.456 106.76 97.408 106.76 95.952C106.76 94.496 106.56 93.464 106.16 92.856C105.776 92.248 105.072 91.944 104.048 91.944C103.024 91.944 102.312 92.248 101.912 92.856C101.528 93.464 101.336 94.496 101.336 95.952C101.336 97.408 101.52 98.456 101.888 99.096ZM114.614 102H111.998V90H114.59V90.744C115.758 90.072 116.862 89.736 117.902 89.736C119.502 89.736 120.59 90.192 121.166 91.104C121.758 92 122.054 93.488 122.054 95.568V102H119.462V95.64C119.462 94.344 119.318 93.424 119.03 92.88C118.758 92.336 118.19 92.064 117.326 92.064C116.51 92.064 115.726 92.224 114.974 92.544L114.614 92.688V102ZM131.556 92.232H128.244V97.512C128.244 98.488 128.316 99.136 128.46 99.456C128.604 99.776 128.972 99.936 129.564 99.936L131.532 99.864L131.652 101.952C130.58 102.16 129.764 102.264 129.204 102.264C127.844 102.264 126.908 101.952 126.396 101.328C125.9 100.704 125.652 99.528 125.652 97.8V92.232H124.116V90H125.652V86.52H128.244V90H131.556V92.232ZM142.581 93.696V99.168C142.597 99.52 142.685 99.784 142.845 99.96C143.021 100.12 143.285 100.224 143.637 100.272L143.565 102.264C142.189 102.264 141.125 101.968 140.373 101.376C139.093 101.968 137.805 102.264 136.509 102.264C134.125 102.264 132.933 100.992 132.933 98.448C132.933 97.232 133.253 96.352 133.893 95.808C134.549 95.264 135.549 94.936 136.893 94.824L139.989 94.56V93.696C139.989 93.056 139.845 92.608 139.557 92.352C139.285 92.096 138.877 91.968 138.333 91.968C137.309 91.968 136.029 92.032 134.493 92.16L133.725 92.208L133.629 90.36C135.373 89.944 136.973 89.736 138.429 89.736C139.901 89.736 140.957 90.056 141.597 90.696C142.253 91.32 142.581 92.32 142.581 93.696ZM137.205 96.672C136.101 96.768 135.549 97.368 135.549 98.472C135.549 99.576 136.037 100.128 137.013 100.128C137.813 100.128 138.661 100 139.557 99.744L139.989 99.6V96.408L137.205 96.672ZM150.353 89.736C151.201 89.736 152.201 89.848 153.353 90.072L153.953 90.192L153.857 92.256C152.593 92.128 151.657 92.064 151.049 92.064C149.833 92.064 149.017 92.336 148.601 92.88C148.185 93.424 147.977 94.448 147.977 95.952C147.977 97.456 148.177 98.496 148.577 99.072C148.977 99.648 149.809 99.936 151.073 99.936L153.881 99.744L153.953 101.832C152.337 102.12 151.121 102.264 150.305 102.264C148.481 102.264 147.193 101.776 146.441 100.8C145.705 99.808 145.337 98.192 145.337 95.952C145.337 93.712 145.729 92.12 146.513 91.176C147.297 90.216 148.577 89.736 150.353 89.736ZM162.938 92.232H159.626V97.512C159.626 98.488 159.698 99.136 159.842 99.456C159.986 99.776 160.354 99.936 160.946 99.936L162.914 99.864L163.034 101.952C161.962 102.16 161.146 102.264 160.586 102.264C159.226 102.264 158.29 101.952 157.778 101.328C157.282 100.704 157.034 99.528 157.034 97.8V92.232H155.498V90H157.034V86.52H159.626V90H162.938V92.232ZM173.412 92.472C171.524 92.216 170.156 92.088 169.308 92.088C168.46 92.088 167.868 92.192 167.532 92.4C167.212 92.592 167.052 92.904 167.052 93.336C167.052 93.768 167.228 94.072 167.58 94.248C167.948 94.424 168.796 94.632 170.124 94.872C171.468 95.096 172.42 95.456 172.98 95.952C173.54 96.448 173.82 97.328 173.82 98.592C173.82 99.856 173.412 100.784 172.596 101.376C171.796 101.968 170.62 102.264 169.068 102.264C168.092 102.264 166.86 102.128 165.372 101.856L164.628 101.736L164.724 99.552C166.644 99.808 168.028 99.936 168.876 99.936C169.724 99.936 170.324 99.832 170.676 99.624C171.044 99.416 171.228 99.072 171.228 98.592C171.228 98.112 171.052 97.784 170.7 97.608C170.364 97.416 169.54 97.216 168.228 97.008C166.932 96.784 165.98 96.44 165.372 95.976C164.764 95.512 164.46 94.664 164.46 93.432C164.46 92.2 164.876 91.28 165.708 90.672C166.556 90.064 167.636 89.76 168.948 89.76C169.972 89.76 171.228 89.888 172.716 90.144L173.46 90.288L173.412 92.472Z" fill="#1F2633"/>
<circle cx="87.5" cy="22.5" r="22.5" fill="#2DA5FC" fill-opacity="0.5"/>
<path fill-rule="evenodd" clip-rule="evenodd" d="M78.8749 20.6425C77.9885 19.7977 76.5513 19.7977 75.6648 20.6425C74.7784 21.4873 74.7784 22.857 75.6648 23.7018L83.3228 31L98.3352 16.6929C99.2216 15.8481 99.2216 14.4784 98.3352 13.6336C97.4487 12.7888 96.0115 12.7888 95.1251 13.6336L83.3228 24.8815L78.8749 20.6425Z" fill="black"/>
</svg>
