<svg width="173" height="148" viewBox="0 0 173 148" fill="none" xmlns="http://www.w3.org/2000/svg">
<path opacity="0.8" d="M13.8579 141.198C12.0579 141.198 10.8339 140.7 10.1859 139.704C9.5499 138.708 9.2319 137.07 9.2319 134.79C9.2319 132.51 9.5559 130.89 10.2039 129.93C10.8519 128.958 12.0699 128.472 13.8579 128.472C14.9259 128.472 16.1019 128.622 17.3859 128.922L17.3139 130.542C16.2339 130.35 15.1539 130.254 14.0739 130.254C12.9939 130.254 12.2619 130.578 11.8779 131.226C11.4939 131.862 11.3019 133.068 11.3019 134.844C11.3019 136.608 11.4879 137.814 11.8599 138.462C12.2319 139.098 12.9579 139.416 14.0379 139.416C15.1179 139.416 16.2099 139.326 17.3139 139.146L17.3679 140.802C16.1319 141.066 14.9619 141.198 13.8579 141.198ZM23.1269 130.218C21.6029 130.218 20.8409 130.752 20.8409 131.82C20.8409 132.372 21.0209 132.768 21.3809 133.008C21.7409 133.236 22.5329 133.524 23.7569 133.872C24.9929 134.208 25.8629 134.616 26.3669 135.096C26.8709 135.564 27.1229 136.308 27.1229 137.328C27.1229 138.624 26.7509 139.596 26.0069 140.244C25.2749 140.88 24.2729 141.198 23.0009 141.198C21.9809 141.198 20.8529 141.078 19.6169 140.838L18.9689 140.712L19.1669 139.11C20.7869 139.326 22.0229 139.434 22.8749 139.434C24.3629 139.434 25.1069 138.774 25.1069 137.454C25.1069 136.938 24.9389 136.56 24.6029 136.32C24.2669 136.068 23.5109 135.798 22.3349 135.51C21.1589 135.21 20.2829 134.802 19.7069 134.286C19.1309 133.77 18.8429 132.954 18.8429 131.838C18.8429 130.722 19.2029 129.882 19.9229 129.318C20.6549 128.742 21.6629 128.454 22.9469 128.454C23.8709 128.454 24.9629 128.562 26.2229 128.778L26.8529 128.886L26.6909 130.506C25.0109 130.314 23.8229 130.218 23.1269 130.218ZM35.9461 128.67H38.0341L35.0101 141H31.0861L28.0621 128.67H30.1501L32.5981 139.236H33.4981L35.9461 128.67ZM43.7667 141V128.67H51.4167V130.416H45.7647V134.574H50.4627V136.32H45.7647V141H43.7667ZM53.0601 141V132H55.0221V141H53.0601ZM53.0601 130.47V128.4H55.0221V130.47H53.0601ZM57.5099 141V128.256H59.4719V141H57.5099ZM68.3626 139.38L68.8666 139.326L68.9026 140.784C67.5346 141.06 66.3226 141.198 65.2666 141.198C63.9346 141.198 62.9746 140.832 62.3866 140.1C61.8106 139.368 61.5226 138.198 61.5226 136.59C61.5226 133.398 62.8246 131.802 65.4286 131.802C67.9486 131.802 69.2086 133.176 69.2086 135.924L69.0826 137.328H63.5026C63.5146 138.072 63.6766 138.618 63.9886 138.966C64.3006 139.314 64.8826 139.488 65.7346 139.488C66.5866 139.488 67.4626 139.452 68.3626 139.38ZM67.2826 135.816C67.2826 134.928 67.1386 134.31 66.8506 133.962C66.5746 133.602 66.1006 133.422 65.4286 133.422C64.7566 133.422 64.2646 133.608 63.9526 133.98C63.6526 134.352 63.4966 134.964 63.4846 135.816H67.2826ZM75.0503 141V132H77.0123V141H75.0503ZM75.0503 130.47V128.4H77.0123V130.47H75.0503ZM85.6381 133.854C84.2221 133.662 83.1961 133.566 82.5601 133.566C81.9241 133.566 81.4801 133.644 81.2281 133.8C80.9881 133.944 80.8681 134.178 80.8681 134.502C80.8681 134.826 81.0001 135.054 81.2641 135.186C81.5401 135.318 82.1761 135.474 83.1721 135.654C84.1801 135.822 84.8941 136.092 85.3141 136.464C85.7341 136.836 85.9441 137.496 85.9441 138.444C85.9441 139.392 85.6381 140.088 85.0261 140.532C84.4261 140.976 83.5441 141.198 82.3801 141.198C81.6481 141.198 80.7241 141.096 79.6081 140.892L79.0501 140.802L79.1221 139.164C80.5621 139.356 81.6001 139.452 82.2361 139.452C82.8721 139.452 83.3221 139.374 83.5861 139.218C83.8621 139.062 84.0001 138.804 84.0001 138.444C84.0001 138.084 83.8681 137.838 83.6041 137.706C83.3521 137.562 82.7341 137.412 81.7501 137.256C80.7781 137.088 80.0641 136.83 79.6081 136.482C79.1521 136.134 78.9241 135.498 78.9241 134.574C78.9241 133.65 79.2361 132.96 79.8601 132.504C80.4961 132.048 81.3061 131.82 82.2901 131.82C83.0581 131.82 84.0001 131.916 85.1161 132.108L85.6741 132.216L85.6381 133.854ZM93.9267 137.058C93.9267 138.654 94.7667 139.452 96.4467 139.452C98.1267 139.452 98.9667 138.654 98.9667 137.058V128.67H100.983V137.022C100.983 138.474 100.599 139.536 99.8307 140.208C99.0747 140.868 97.9407 141.198 96.4287 141.198C94.9287 141.198 93.8007 140.868 93.0447 140.208C92.2887 139.536 91.9107 138.474 91.9107 137.022V128.67H93.9267V137.058ZM103.421 144.87V132H105.365V132.558C106.193 132.054 106.967 131.802 107.687 131.802C108.875 131.802 109.745 132.168 110.297 132.9C110.849 133.62 111.125 134.838 111.125 136.554C111.125 138.258 110.807 139.458 110.171 140.154C109.547 140.85 108.521 141.198 107.093 141.198C106.601 141.198 106.031 141.144 105.383 141.036V144.87H103.421ZM107.345 133.548C106.781 133.548 106.217 133.674 105.653 133.926L105.383 134.052V139.362C105.863 139.458 106.391 139.506 106.967 139.506C107.783 139.506 108.347 139.272 108.659 138.804C108.971 138.336 109.127 137.538 109.127 136.41C109.127 134.502 108.533 133.548 107.345 133.548ZM113.197 141V128.256H115.159V141H113.197ZM118.128 132.972C118.752 132.192 119.784 131.802 121.224 131.802C122.664 131.802 123.69 132.192 124.302 132.972C124.926 133.752 125.238 134.922 125.238 136.482C125.238 138.042 124.938 139.218 124.338 140.01C123.738 140.802 122.7 141.198 121.224 141.198C119.748 141.198 118.71 140.802 118.11 140.01C117.51 139.218 117.21 138.042 117.21 136.482C117.21 134.922 117.516 133.752 118.128 132.972ZM119.604 138.822C119.88 139.302 120.42 139.542 121.224 139.542C122.028 139.542 122.568 139.302 122.844 138.822C123.12 138.342 123.258 137.556 123.258 136.464C123.258 135.372 123.108 134.598 122.808 134.142C122.52 133.686 121.992 133.458 121.224 133.458C120.456 133.458 119.922 133.686 119.622 134.142C119.334 134.598 119.19 135.372 119.19 136.464C119.19 137.556 119.328 138.342 119.604 138.822ZM133.847 134.772V138.876C133.859 139.14 133.925 139.338 134.045 139.47C134.177 139.59 134.375 139.668 134.639 139.704L134.585 141.198C133.553 141.198 132.755 140.976 132.191 140.532C131.231 140.976 130.265 141.198 129.293 141.198C127.505 141.198 126.611 140.244 126.611 138.336C126.611 137.424 126.851 136.764 127.331 136.356C127.823 135.948 128.573 135.702 129.581 135.618L131.903 135.42V134.772C131.903 134.292 131.795 133.956 131.579 133.764C131.375 133.572 131.069 133.476 130.661 133.476C129.893 133.476 128.933 133.524 127.781 133.62L127.205 133.656L127.133 132.27C128.441 131.958 129.641 131.802 130.733 131.802C131.837 131.802 132.629 132.042 133.109 132.522C133.601 132.99 133.847 133.74 133.847 134.772ZM129.815 137.004C128.987 137.076 128.573 137.526 128.573 138.354C128.573 139.182 128.939 139.596 129.671 139.596C130.271 139.596 130.907 139.5 131.579 139.308L131.903 139.2V136.806L129.815 137.004ZM143.654 128.256V141H141.71V140.532C140.834 140.976 140.03 141.198 139.298 141.198C138.122 141.198 137.258 140.844 136.706 140.136C136.166 139.428 135.896 138.24 135.896 136.572C135.896 134.904 136.196 133.692 136.796 132.936C137.408 132.18 138.356 131.802 139.64 131.802C140.072 131.802 140.756 131.88 141.692 132.036V128.256H143.654ZM141.386 139.128L141.692 139.002V133.674C140.972 133.554 140.306 133.494 139.694 133.494C138.482 133.494 137.876 134.502 137.876 136.518C137.876 137.622 138.014 138.39 138.29 138.822C138.578 139.242 139.028 139.452 139.64 139.452C140.252 139.452 140.834 139.344 141.386 139.128ZM152.439 139.38L152.943 139.326L152.979 140.784C151.611 141.06 150.399 141.198 149.343 141.198C148.011 141.198 147.051 140.832 146.463 140.1C145.887 139.368 145.599 138.198 145.599 136.59C145.599 133.398 146.901 131.802 149.505 131.802C152.025 131.802 153.285 133.176 153.285 135.924L153.159 137.328H147.579C147.591 138.072 147.753 138.618 148.065 138.966C148.377 139.314 148.959 139.488 149.811 139.488C150.663 139.488 151.539 139.452 152.439 139.38ZM151.359 135.816C151.359 134.928 151.215 134.31 150.927 133.962C150.651 133.602 150.177 133.422 149.505 133.422C148.833 133.422 148.341 133.608 148.029 133.98C147.729 134.352 147.573 134.964 147.561 135.816H151.359ZM162.515 128.256V141H160.571V140.532C159.695 140.976 158.891 141.198 158.159 141.198C156.983 141.198 156.119 140.844 155.567 140.136C155.027 139.428 154.757 138.24 154.757 136.572C154.757 134.904 155.057 133.692 155.657 132.936C156.269 132.18 157.217 131.802 158.501 131.802C158.933 131.802 159.617 131.88 160.553 132.036V128.256H162.515ZM160.247 139.128L160.553 139.002V133.674C159.833 133.554 159.167 133.494 158.555 133.494C157.343 133.494 156.737 134.502 156.737 136.518C156.737 137.622 156.875 138.39 157.151 138.822C157.439 139.242 157.889 139.452 158.501 139.452C159.113 139.452 159.695 139.344 160.247 139.128Z" fill="#2DA5FC"/>
<path d="M1.896 102V85.56H4.56V102H1.896ZM10.6453 102H8.02931V90H10.6213V90.744C11.7573 90.072 12.7973 89.736 13.7413 89.736C15.1333 89.736 16.1493 90.128 16.7893 90.912C18.2453 90.128 19.6933 89.736 21.1333 89.736C22.5733 89.736 23.5893 90.184 24.1813 91.08C24.7733 91.96 25.0693 93.456 25.0693 95.568V102H22.4773V95.64C22.4773 94.344 22.3413 93.424 22.0693 92.88C21.8133 92.336 21.2693 92.064 20.4373 92.064C19.7173 92.064 18.9413 92.224 18.1093 92.544L17.7013 92.712C17.8293 93.032 17.8933 94.056 17.8933 95.784V102H15.3013V95.832C15.3013 94.408 15.1733 93.424 14.9173 92.88C14.6613 92.336 14.1013 92.064 13.2373 92.064C12.4373 92.064 11.6933 92.224 11.0053 92.544L10.6453 92.688V102ZM28.1387 107.16V90H30.7307V90.744C31.8347 90.072 32.8667 89.736 33.8267 89.736C35.4107 89.736 36.5707 90.224 37.3067 91.2C38.0427 92.16 38.4107 93.784 38.4107 96.072C38.4107 98.344 37.9867 99.944 37.1387 100.872C36.3067 101.8 34.9387 102.264 33.0347 102.264C32.3787 102.264 31.6187 102.192 30.7547 102.048V107.16H28.1387ZM33.3707 92.064C32.6187 92.064 31.8667 92.232 31.1147 92.568L30.7547 92.736V99.816C31.3947 99.944 32.0987 100.008 32.8667 100.008C33.9547 100.008 34.7067 99.696 35.1227 99.072C35.5387 98.448 35.7467 97.384 35.7467 95.88C35.7467 93.336 34.9547 92.064 33.3707 92.064ZM41.6773 91.296C42.5093 90.256 43.8853 89.736 45.8053 89.736C47.7253 89.736 49.0933 90.256 49.9093 91.296C50.7413 92.336 51.1573 93.896 51.1573 95.976C51.1573 98.056 50.7573 99.624 49.9573 100.68C49.1573 101.736 47.7733 102.264 45.8053 102.264C43.8373 102.264 42.4533 101.736 41.6533 100.68C40.8533 99.624 40.4533 98.056 40.4533 95.976C40.4533 93.896 40.8613 92.336 41.6773 91.296ZM43.6453 99.096C44.0133 99.736 44.7333 100.056 45.8053 100.056C46.8773 100.056 47.5973 99.736 47.9653 99.096C48.3333 98.456 48.5173 97.408 48.5173 95.952C48.5173 94.496 48.3173 93.464 47.9173 92.856C47.5333 92.248 46.8293 91.944 45.8053 91.944C44.7813 91.944 44.0693 92.248 43.6693 92.856C43.2853 93.464 43.0933 94.496 43.0933 95.952C43.0933 97.408 43.2773 98.456 43.6453 99.096ZM53.7559 102V90H56.3479V91.44C57.7079 90.56 59.0679 89.992 60.4279 89.736V92.352C59.0519 92.624 57.8759 92.976 56.8999 93.408L56.3719 93.624V102H53.7559ZM68.8838 92.232H65.5718V97.512C65.5718 98.488 65.6438 99.136 65.7878 99.456C65.9318 99.776 66.2998 99.936 66.8918 99.936L68.8598 99.864L68.9798 101.952C67.9078 102.16 67.0918 102.264 66.5318 102.264C65.1718 102.264 64.2358 101.952 63.7238 101.328C63.2278 100.704 62.9798 99.528 62.9798 97.8V92.232H61.4438V90H62.9798V86.52H65.5718V90H68.8838V92.232ZM82.1348 102.264C79.7348 102.264 78.1028 101.6 77.2388 100.272C76.3908 98.944 75.9668 96.76 75.9668 93.72C75.9668 90.68 76.3988 88.52 77.2628 87.24C78.1268 85.944 79.7508 85.296 82.1348 85.296C83.5588 85.296 85.1268 85.496 86.8387 85.896L86.7428 88.056C85.3028 87.8 83.8628 87.672 82.4228 87.672C80.9828 87.672 80.0068 88.104 79.4948 88.968C78.9828 89.816 78.7268 91.424 78.7268 93.792C78.7268 96.144 78.9748 97.752 79.4708 98.616C79.9668 99.464 80.9348 99.888 82.3748 99.888C83.8148 99.888 85.2708 99.768 86.7428 99.528L86.8148 101.736C85.1668 102.088 83.6068 102.264 82.1348 102.264ZM89.7945 91.296C90.6265 90.256 92.0025 89.736 93.9225 89.736C95.8425 89.736 97.2105 90.256 98.0265 91.296C98.8585 92.336 99.2745 93.896 99.2745 95.976C99.2745 98.056 98.8745 99.624 98.0745 100.68C97.2745 101.736 95.8905 102.264 93.9225 102.264C91.9545 102.264 90.5705 101.736 89.7705 100.68C88.9705 99.624 88.5705 98.056 88.5705 95.976C88.5705 93.896 88.9785 92.336 89.7945 91.296ZM91.7625 99.096C92.1305 99.736 92.8505 100.056 93.9225 100.056C94.9945 100.056 95.7145 99.736 96.0825 99.096C96.4505 98.456 96.6345 97.408 96.6345 95.952C96.6345 94.496 96.4345 93.464 96.0345 92.856C95.6505 92.248 94.9465 91.944 93.9225 91.944C92.8985 91.944 92.1865 92.248 91.7865 92.856C91.4025 93.464 91.2105 94.496 91.2105 95.952C91.2105 97.408 91.3945 98.456 91.7625 99.096ZM104.489 102H101.873V90H104.465V90.744C105.601 90.072 106.641 89.736 107.585 89.736C108.977 89.736 109.993 90.128 110.633 90.912C112.089 90.128 113.537 89.736 114.977 89.736C116.417 89.736 117.433 90.184 118.025 91.08C118.617 91.96 118.913 93.456 118.913 95.568V102H116.321V95.64C116.321 94.344 116.185 93.424 115.913 92.88C115.657 92.336 115.113 92.064 114.281 92.064C113.561 92.064 112.785 92.224 111.953 92.544L111.545 92.712C111.673 93.032 111.737 94.056 111.737 95.784V102H109.145V95.832C109.145 94.408 109.017 93.424 108.761 92.88C108.505 92.336 107.945 92.064 107.081 92.064C106.281 92.064 105.537 92.224 104.849 92.544L104.489 92.688V102ZM121.982 107.16V90H124.574V90.744C125.678 90.072 126.71 89.736 127.67 89.736C129.254 89.736 130.414 90.224 131.15 91.2C131.886 92.16 132.254 93.784 132.254 96.072C132.254 98.344 131.83 99.944 130.982 100.872C130.15 101.8 128.782 102.264 126.878 102.264C126.222 102.264 125.462 102.192 124.598 102.048V107.16H121.982ZM127.214 92.064C126.462 92.064 125.71 92.232 124.958 92.568L124.598 92.736V99.816C125.238 99.944 125.942 100.008 126.71 100.008C127.798 100.008 128.55 99.696 128.966 99.072C129.382 98.448 129.59 97.384 129.59 95.88C129.59 93.336 128.798 92.064 127.214 92.064ZM135.017 102V85.008H137.633V102H135.017ZM149.487 99.84L150.159 99.768L150.207 101.712C148.383 102.08 146.767 102.264 145.359 102.264C143.583 102.264 142.303 101.776 141.519 100.8C140.751 99.824 140.367 98.264 140.367 96.12C140.367 91.864 142.103 89.736 145.575 89.736C148.935 89.736 150.615 91.568 150.615 95.232L150.447 97.104H143.007C143.023 98.096 143.239 98.824 143.655 99.288C144.071 99.752 144.847 99.984 145.983 99.984C147.119 99.984 148.287 99.936 149.487 99.84ZM148.047 95.088C148.047 93.904 147.855 93.08 147.471 92.616C147.103 92.136 146.471 91.896 145.575 91.896C144.679 91.896 144.023 92.144 143.607 92.64C143.207 93.136 142.999 93.952 142.983 95.088H148.047ZM159.587 92.232H156.275V97.512C156.275 98.488 156.347 99.136 156.491 99.456C156.635 99.776 157.003 99.936 157.595 99.936L159.563 99.864L159.683 101.952C158.611 102.16 157.795 102.264 157.235 102.264C155.875 102.264 154.939 101.952 154.427 101.328C153.931 100.704 153.683 99.528 153.683 97.8V92.232H152.147V90H153.683V86.52H156.275V90H159.587V92.232ZM170.276 99.84L170.948 99.768L170.996 101.712C169.172 102.08 167.556 102.264 166.148 102.264C164.372 102.264 163.092 101.776 162.308 100.8C161.54 99.824 161.156 98.264 161.156 96.12C161.156 91.864 162.892 89.736 166.364 89.736C169.724 89.736 171.404 91.568 171.404 95.232L171.236 97.104H163.796C163.812 98.096 164.028 98.824 164.444 99.288C164.86 99.752 165.636 99.984 166.772 99.984C167.908 99.984 169.076 99.936 170.276 99.84ZM168.836 95.088C168.836 93.904 168.644 93.08 168.26 92.616C167.892 92.136 167.26 91.896 166.364 91.896C165.468 91.896 164.812 92.144 164.396 92.64C163.996 93.136 163.788 93.952 163.772 95.088H168.836Z" fill="#1F2633"/>
<circle cx="85.5" cy="22.5" r="22.5" fill="#2DA5FC" fill-opacity="0.5"/>
<path fill-rule="evenodd" clip-rule="evenodd" d="M76.8749 20.6425C75.9885 19.7977 74.5513 19.7977 73.6648 20.6425C72.7784 21.4873 72.7784 22.857 73.6648 23.7018L81.3228 31L96.3352 16.6929C97.2216 15.8481 97.2216 14.4784 96.3352 13.6336C95.4487 12.7888 94.0115 12.7888 93.1251 13.6336L81.3228 24.8815L76.8749 20.6425Z" fill="black"/>
</svg>
