<svg width="345" height="318" viewBox="0 0 345 318" fill="none" xmlns="http://www.w3.org/2000/svg">
<rect width="345" height="318" rx="10" fill="white"/>
<path opacity="0.8" d="M81.772 175H77.506V162.67H81.772C83.668 162.67 84.964 163.15 85.66 164.11C86.356 165.07 86.704 166.576 86.704 168.628C86.704 169.672 86.632 170.56 86.488 171.292C86.356 172.012 86.116 172.666 85.768 173.254C85.084 174.418 83.752 175 81.772 175ZM84.634 168.628C84.634 167.14 84.448 166.066 84.076 165.406C83.704 164.746 82.936 164.416 81.772 164.416H79.504V173.236H81.772C82.96 173.236 83.752 172.798 84.148 171.922C84.34 171.478 84.466 171.004 84.526 170.5C84.598 169.996 84.634 169.372 84.634 168.628ZM88.8032 175V166H90.7472V167.08C91.7672 166.42 92.7872 165.994 93.8072 165.802V167.764C92.7752 167.968 91.8932 168.232 91.1612 168.556L90.7652 168.718V175H88.8032ZM101.967 168.772V172.876C101.979 173.14 102.045 173.338 102.165 173.47C102.297 173.59 102.495 173.668 102.759 173.704L102.705 175.198C101.673 175.198 100.875 174.976 100.311 174.532C99.3511 174.976 98.3851 175.198 97.4131 175.198C95.6251 175.198 94.7311 174.244 94.7311 172.336C94.7311 171.424 94.9711 170.764 95.4511 170.356C95.9431 169.948 96.6931 169.702 97.7011 169.618L100.023 169.42V168.772C100.023 168.292 99.9151 167.956 99.6991 167.764C99.4951 167.572 99.1891 167.476 98.7811 167.476C98.0131 167.476 97.0531 167.524 95.9011 167.62L95.3251 167.656L95.2531 166.27C96.5611 165.958 97.7611 165.802 98.8531 165.802C99.9571 165.802 100.749 166.042 101.229 166.522C101.721 166.99 101.967 167.74 101.967 168.772ZM97.9351 171.004C97.1071 171.076 96.6931 171.526 96.6931 172.354C96.6931 173.182 97.0591 173.596 97.7911 173.596C98.3911 173.596 99.0271 173.5 99.6991 173.308L100.023 173.2V170.806L97.9351 171.004ZM112.296 176.224C112.296 178.192 110.874 179.176 108.03 179.176C106.662 179.176 105.648 178.99 104.988 178.618C104.328 178.246 103.998 177.568 103.998 176.584C103.998 176.14 104.106 175.756 104.322 175.432C104.538 175.12 104.886 174.778 105.366 174.406C104.97 174.142 104.772 173.704 104.772 173.092C104.772 172.852 104.934 172.462 105.258 171.922L105.42 171.652C104.556 171.136 104.124 170.236 104.124 168.952C104.124 167.872 104.448 167.08 105.096 166.576C105.744 166.072 106.62 165.82 107.724 165.82C108.252 165.82 108.774 165.88 109.29 166L109.56 166.054L112.35 165.982V167.566L110.856 167.476C111.18 167.896 111.342 168.388 111.342 168.952C111.342 170.128 111.042 170.944 110.442 171.4C109.854 171.844 108.93 172.066 107.67 172.066C107.358 172.066 107.094 172.042 106.878 171.994C106.71 172.402 106.626 172.72 106.626 172.948C106.626 173.164 106.734 173.314 106.95 173.398C107.178 173.482 107.718 173.53 108.57 173.542C109.998 173.554 110.976 173.746 111.504 174.118C112.032 174.49 112.296 175.192 112.296 176.224ZM105.924 176.404C105.924 176.824 106.092 177.124 106.428 177.304C106.764 177.484 107.34 177.574 108.156 177.574C109.608 177.574 110.334 177.16 110.334 176.332C110.334 175.864 110.202 175.564 109.938 175.432C109.686 175.312 109.176 175.246 108.408 175.234L106.644 175.126C106.38 175.342 106.194 175.54 106.086 175.72C105.978 175.912 105.924 176.14 105.924 176.404ZM106.068 168.952C106.068 169.504 106.2 169.912 106.464 170.176C106.728 170.428 107.154 170.554 107.742 170.554C108.33 170.554 108.75 170.428 109.002 170.176C109.266 169.912 109.398 169.504 109.398 168.952C109.398 168.4 109.266 167.998 109.002 167.746C108.738 167.482 108.312 167.35 107.724 167.35C106.62 167.35 106.068 167.884 106.068 168.952ZM118.868 164.956C118.868 164.128 119.174 163.474 119.786 162.994C120.41 162.514 121.268 162.274 122.36 162.274C123.452 162.274 124.292 162.52 124.88 163.012C125.468 163.492 125.762 164.164 125.762 165.028C125.762 165.88 125.57 166.552 125.186 167.044C124.802 167.536 124.124 168.064 123.152 168.628L125.348 170.806C125.432 170.578 125.516 170.188 125.6 169.636C125.684 169.072 125.738 168.604 125.762 168.232L127.652 168.268C127.484 169.732 127.19 170.962 126.77 171.958L128.912 173.92L127.796 175.198L125.762 173.434C125.366 173.986 124.838 174.418 124.178 174.73C123.518 175.042 122.792 175.198 122 175.198C120.308 175.198 119.108 174.88 118.4 174.244C117.692 173.608 117.338 172.666 117.338 171.418C117.338 170.422 117.548 169.654 117.968 169.114C118.388 168.562 119.066 168.112 120.002 167.764C119.534 167.224 119.228 166.768 119.084 166.396C118.94 166.024 118.868 165.544 118.868 164.956ZM121.784 173.452C122.36 173.452 122.888 173.356 123.368 173.164C123.848 172.96 124.202 172.684 124.43 172.336L121.028 168.934C120.428 169.162 119.99 169.456 119.714 169.816C119.45 170.176 119.318 170.656 119.318 171.256C119.318 172.72 120.14 173.452 121.784 173.452ZM120.848 165.352C120.848 165.94 121.118 166.522 121.658 167.098L122.054 167.512C122.69 167.152 123.134 166.816 123.386 166.504C123.65 166.192 123.782 165.79 123.782 165.298C123.782 164.386 123.29 163.93 122.306 163.93C121.334 163.93 120.848 164.404 120.848 165.352ZM138.831 175H134.565V162.67H138.831C140.727 162.67 142.023 163.15 142.719 164.11C143.415 165.07 143.763 166.576 143.763 168.628C143.763 169.672 143.691 170.56 143.547 171.292C143.415 172.012 143.175 172.666 142.827 173.254C142.143 174.418 140.811 175 138.831 175ZM141.693 168.628C141.693 167.14 141.507 166.066 141.135 165.406C140.763 164.746 139.995 164.416 138.831 164.416H136.563V173.236H138.831C140.019 173.236 140.811 172.798 141.207 171.922C141.399 171.478 141.525 171.004 141.585 170.5C141.657 169.996 141.693 169.372 141.693 168.628ZM145.862 175V166H147.806V167.08C148.826 166.42 149.846 165.994 150.866 165.802V167.764C149.834 167.968 148.952 168.232 148.22 168.556L147.824 168.718V175H145.862ZM152.781 166.972C153.405 166.192 154.437 165.802 155.877 165.802C157.317 165.802 158.343 166.192 158.955 166.972C159.579 167.752 159.891 168.922 159.891 170.482C159.891 172.042 159.591 173.218 158.991 174.01C158.391 174.802 157.353 175.198 155.877 175.198C154.401 175.198 153.363 174.802 152.763 174.01C152.163 173.218 151.863 172.042 151.863 170.482C151.863 168.922 152.169 167.752 152.781 166.972ZM154.257 172.822C154.533 173.302 155.073 173.542 155.877 173.542C156.681 173.542 157.221 173.302 157.497 172.822C157.773 172.342 157.911 171.556 157.911 170.464C157.911 169.372 157.761 168.598 157.461 168.142C157.173 167.686 156.645 167.458 155.877 167.458C155.109 167.458 154.575 167.686 154.275 168.142C153.987 168.598 153.843 169.372 153.843 170.464C153.843 171.556 153.981 172.342 154.257 172.822ZM161.84 178.87V166H163.784V166.558C164.612 166.054 165.386 165.802 166.106 165.802C167.294 165.802 168.164 166.168 168.716 166.9C169.268 167.62 169.544 168.838 169.544 170.554C169.544 172.258 169.226 173.458 168.59 174.154C167.966 174.85 166.94 175.198 165.512 175.198C165.02 175.198 164.45 175.144 163.802 175.036V178.87H161.84ZM165.764 167.548C165.2 167.548 164.636 167.674 164.072 167.926L163.802 168.052V173.362C164.282 173.458 164.81 173.506 165.386 173.506C166.202 173.506 166.766 173.272 167.078 172.804C167.39 172.336 167.546 171.538 167.546 170.41C167.546 168.502 166.952 167.548 165.764 167.548ZM182.123 168.772V172.876C182.135 173.14 182.201 173.338 182.321 173.47C182.453 173.59 182.651 173.668 182.915 173.704L182.861 175.198C181.829 175.198 181.031 174.976 180.467 174.532C179.507 174.976 178.541 175.198 177.569 175.198C175.781 175.198 174.887 174.244 174.887 172.336C174.887 171.424 175.127 170.764 175.607 170.356C176.099 169.948 176.849 169.702 177.857 169.618L180.179 169.42V168.772C180.179 168.292 180.071 167.956 179.855 167.764C179.651 167.572 179.345 167.476 178.937 167.476C178.169 167.476 177.209 167.524 176.057 167.62L175.481 167.656L175.409 166.27C176.717 165.958 177.917 165.802 179.009 165.802C180.113 165.802 180.905 166.042 181.385 166.522C181.877 166.99 182.123 167.74 182.123 168.772ZM178.091 171.004C177.263 171.076 176.849 171.526 176.849 172.354C176.849 173.182 177.215 173.596 177.947 173.596C178.547 173.596 179.183 173.5 179.855 173.308L180.179 173.2V170.806L178.091 171.004ZM192.916 175.198C191.116 175.198 189.892 174.7 189.244 173.704C188.608 172.708 188.29 171.07 188.29 168.79C188.29 166.51 188.614 164.89 189.262 163.93C189.91 162.958 191.128 162.472 192.916 162.472C193.984 162.472 195.16 162.622 196.444 162.922L196.372 164.542C195.292 164.35 194.212 164.254 193.132 164.254C192.052 164.254 191.32 164.578 190.936 165.226C190.552 165.862 190.36 167.068 190.36 168.844C190.36 170.608 190.546 171.814 190.918 172.462C191.29 173.098 192.016 173.416 193.096 173.416C194.176 173.416 195.268 173.326 196.372 173.146L196.426 174.802C195.19 175.066 194.02 175.198 192.916 175.198ZM202.185 164.218C200.661 164.218 199.899 164.752 199.899 165.82C199.899 166.372 200.079 166.768 200.439 167.008C200.799 167.236 201.591 167.524 202.815 167.872C204.051 168.208 204.921 168.616 205.425 169.096C205.929 169.564 206.181 170.308 206.181 171.328C206.181 172.624 205.809 173.596 205.065 174.244C204.333 174.88 203.331 175.198 202.059 175.198C201.039 175.198 199.911 175.078 198.675 174.838L198.027 174.712L198.225 173.11C199.845 173.326 201.081 173.434 201.933 173.434C203.421 173.434 204.165 172.774 204.165 171.454C204.165 170.938 203.997 170.56 203.661 170.32C203.325 170.068 202.569 169.798 201.393 169.51C200.217 169.21 199.341 168.802 198.765 168.286C198.189 167.77 197.901 166.954 197.901 165.838C197.901 164.722 198.261 163.882 198.981 163.318C199.713 162.742 200.721 162.454 202.005 162.454C202.929 162.454 204.021 162.562 205.281 162.778L205.911 162.886L205.749 164.506C204.069 164.314 202.881 164.218 202.185 164.218ZM215.004 162.67H217.092L214.068 175H210.144L207.12 162.67H209.208L211.656 173.236H212.556L215.004 162.67ZM222.824 175V162.67H230.474V164.416H224.822V168.574H229.52V170.32H224.822V175H222.824ZM232.118 175V166H234.08V175H232.118ZM232.118 164.47V162.4H234.08V164.47H232.118ZM236.567 175V162.256H238.529V175H236.567ZM247.42 173.38L247.924 173.326L247.96 174.784C246.592 175.06 245.38 175.198 244.324 175.198C242.992 175.198 242.032 174.832 241.444 174.1C240.868 173.368 240.58 172.198 240.58 170.59C240.58 167.398 241.882 165.802 244.486 165.802C247.006 165.802 248.266 167.176 248.266 169.924L248.14 171.328H242.56C242.572 172.072 242.734 172.618 243.046 172.966C243.358 173.314 243.94 173.488 244.792 173.488C245.644 173.488 246.52 173.452 247.42 173.38ZM246.34 169.816C246.34 168.928 246.196 168.31 245.908 167.962C245.632 167.602 245.158 167.422 244.486 167.422C243.814 167.422 243.322 167.608 243.01 167.98C242.71 168.352 242.554 168.964 242.542 169.816H246.34ZM258.95 167.674H256.466V171.634C256.466 172.366 256.52 172.852 256.628 173.092C256.736 173.332 257.012 173.452 257.456 173.452L258.932 173.398L259.022 174.964C258.218 175.12 257.606 175.198 257.186 175.198C256.166 175.198 255.464 174.964 255.08 174.496C254.708 174.028 254.522 173.146 254.522 171.85V167.674H253.37V166H254.522V163.39H256.466V166H258.95V167.674ZM261.045 166.972C261.669 166.192 262.701 165.802 264.141 165.802C265.581 165.802 266.607 166.192 267.219 166.972C267.843 167.752 268.155 168.922 268.155 170.482C268.155 172.042 267.855 173.218 267.255 174.01C266.655 174.802 265.617 175.198 264.141 175.198C262.665 175.198 261.627 174.802 261.027 174.01C260.427 173.218 260.127 172.042 260.127 170.482C260.127 168.922 260.433 167.752 261.045 166.972ZM262.521 172.822C262.797 173.302 263.337 173.542 264.141 173.542C264.945 173.542 265.485 173.302 265.761 172.822C266.037 172.342 266.175 171.556 266.175 170.464C266.175 169.372 266.025 168.598 265.725 168.142C265.437 167.686 264.909 167.458 264.141 167.458C263.373 167.458 262.839 167.686 262.539 168.142C262.251 168.598 262.107 169.372 262.107 170.464C262.107 171.556 262.245 172.342 262.521 172.822ZM148.707 198.058C148.707 199.654 149.547 200.452 151.227 200.452C152.907 200.452 153.747 199.654 153.747 198.058V189.67H155.763V198.022C155.763 199.474 155.379 200.536 154.611 201.208C153.855 201.868 152.721 202.198 151.209 202.198C149.709 202.198 148.581 201.868 147.825 201.208C147.069 200.536 146.691 199.474 146.691 198.022V189.67H148.707V198.058ZM158.202 205.87V193H160.146V193.558C160.974 193.054 161.748 192.802 162.468 192.802C163.656 192.802 164.526 193.168 165.078 193.9C165.63 194.62 165.906 195.838 165.906 197.554C165.906 199.258 165.588 200.458 164.952 201.154C164.328 201.85 163.302 202.198 161.874 202.198C161.382 202.198 160.812 202.144 160.164 202.036V205.87H158.202ZM162.126 194.548C161.562 194.548 160.998 194.674 160.434 194.926L160.164 195.052V200.362C160.644 200.458 161.172 200.506 161.748 200.506C162.564 200.506 163.128 200.272 163.44 199.804C163.752 199.336 163.908 198.538 163.908 197.41C163.908 195.502 163.314 194.548 162.126 194.548ZM167.978 202V189.256H169.94V202H167.978ZM172.908 193.972C173.532 193.192 174.564 192.802 176.004 192.802C177.444 192.802 178.47 193.192 179.082 193.972C179.706 194.752 180.018 195.922 180.018 197.482C180.018 199.042 179.718 200.218 179.118 201.01C178.518 201.802 177.48 202.198 176.004 202.198C174.528 202.198 173.49 201.802 172.89 201.01C172.29 200.218 171.99 199.042 171.99 197.482C171.99 195.922 172.296 194.752 172.908 193.972ZM174.384 199.822C174.66 200.302 175.2 200.542 176.004 200.542C176.808 200.542 177.348 200.302 177.624 199.822C177.9 199.342 178.038 198.556 178.038 197.464C178.038 196.372 177.888 195.598 177.588 195.142C177.3 194.686 176.772 194.458 176.004 194.458C175.236 194.458 174.702 194.686 174.402 195.142C174.114 195.598 173.97 196.372 173.97 197.464C173.97 198.556 174.108 199.342 174.384 199.822ZM188.627 195.772V199.876C188.639 200.14 188.705 200.338 188.825 200.47C188.957 200.59 189.155 200.668 189.419 200.704L189.365 202.198C188.333 202.198 187.535 201.976 186.971 201.532C186.011 201.976 185.045 202.198 184.073 202.198C182.285 202.198 181.391 201.244 181.391 199.336C181.391 198.424 181.631 197.764 182.111 197.356C182.603 196.948 183.353 196.702 184.361 196.618L186.683 196.42V195.772C186.683 195.292 186.575 194.956 186.359 194.764C186.155 194.572 185.849 194.476 185.441 194.476C184.673 194.476 183.713 194.524 182.561 194.62L181.985 194.656L181.913 193.27C183.221 192.958 184.421 192.802 185.513 192.802C186.617 192.802 187.409 193.042 187.889 193.522C188.381 193.99 188.627 194.74 188.627 195.772ZM184.595 198.004C183.767 198.076 183.353 198.526 183.353 199.354C183.353 200.182 183.719 200.596 184.451 200.596C185.051 200.596 185.687 200.5 186.359 200.308L186.683 200.2V197.806L184.595 198.004ZM198.434 189.256V202H196.49V201.532C195.614 201.976 194.81 202.198 194.078 202.198C192.902 202.198 192.038 201.844 191.486 201.136C190.946 200.428 190.676 199.24 190.676 197.572C190.676 195.904 190.976 194.692 191.576 193.936C192.188 193.18 193.136 192.802 194.42 192.802C194.852 192.802 195.536 192.88 196.472 193.036V189.256H198.434ZM196.166 200.128L196.472 200.002V194.674C195.752 194.554 195.086 194.494 194.474 194.494C193.262 194.494 192.656 195.502 192.656 197.518C192.656 198.622 192.794 199.39 193.07 199.822C193.358 200.242 193.808 200.452 194.42 200.452C195.032 200.452 195.614 200.344 196.166 200.128Z" fill="#2DA5FC"/>
<path d="M118.896 135V118.56H121.56V135H118.896ZM127.645 135H125.029V123H127.621V123.744C128.757 123.072 129.797 122.736 130.741 122.736C132.133 122.736 133.149 123.128 133.789 123.912C135.245 123.128 136.693 122.736 138.133 122.736C139.573 122.736 140.589 123.184 141.181 124.08C141.773 124.96 142.069 126.456 142.069 128.568V135H139.477V128.64C139.477 127.344 139.341 126.424 139.069 125.88C138.813 125.336 138.269 125.064 137.437 125.064C136.717 125.064 135.941 125.224 135.109 125.544L134.701 125.712C134.829 126.032 134.893 127.056 134.893 128.784V135H132.301V128.832C132.301 127.408 132.173 126.424 131.917 125.88C131.661 125.336 131.101 125.064 130.237 125.064C129.437 125.064 128.693 125.224 128.005 125.544L127.645 125.688V135ZM145.139 140.16V123H147.731V123.744C148.835 123.072 149.867 122.736 150.827 122.736C152.411 122.736 153.571 123.224 154.307 124.2C155.043 125.16 155.411 126.784 155.411 129.072C155.411 131.344 154.987 132.944 154.139 133.872C153.307 134.8 151.939 135.264 150.035 135.264C149.379 135.264 148.619 135.192 147.755 135.048V140.16H145.139ZM150.371 125.064C149.619 125.064 148.867 125.232 148.115 125.568L147.755 125.736V132.816C148.395 132.944 149.099 133.008 149.867 133.008C150.955 133.008 151.707 132.696 152.123 132.072C152.539 131.448 152.747 130.384 152.747 128.88C152.747 126.336 151.955 125.064 150.371 125.064ZM158.677 124.296C159.509 123.256 160.885 122.736 162.805 122.736C164.725 122.736 166.093 123.256 166.909 124.296C167.741 125.336 168.157 126.896 168.157 128.976C168.157 131.056 167.757 132.624 166.957 133.68C166.157 134.736 164.773 135.264 162.805 135.264C160.837 135.264 159.453 134.736 158.653 133.68C157.853 132.624 157.453 131.056 157.453 128.976C157.453 126.896 157.861 125.336 158.677 124.296ZM160.645 132.096C161.013 132.736 161.733 133.056 162.805 133.056C163.877 133.056 164.597 132.736 164.965 132.096C165.333 131.456 165.517 130.408 165.517 128.952C165.517 127.496 165.317 126.464 164.917 125.856C164.533 125.248 163.829 124.944 162.805 124.944C161.781 124.944 161.069 125.248 160.669 125.856C160.285 126.464 160.093 127.496 160.093 128.952C160.093 130.408 160.277 131.456 160.645 132.096ZM170.756 135V123H173.348V124.44C174.708 123.56 176.068 122.992 177.428 122.736V125.352C176.052 125.624 174.876 125.976 173.9 126.408L173.372 126.624V135H170.756ZM185.884 125.232H182.572V130.512C182.572 131.488 182.644 132.136 182.788 132.456C182.932 132.776 183.3 132.936 183.892 132.936L185.86 132.864L185.98 134.952C184.908 135.16 184.092 135.264 183.532 135.264C182.172 135.264 181.236 134.952 180.724 134.328C180.228 133.704 179.98 132.528 179.98 130.8V125.232H178.444V123H179.98V119.52H182.572V123H185.884V125.232ZM193.615 135V118.56H203.815V120.888H196.279V126.432H202.543V128.76H196.279V135H193.615ZM206.006 135V123H208.622V135H206.006ZM206.006 120.96V118.2H208.622V120.96H206.006ZM211.939 135V118.008H214.555V135H211.939ZM226.409 132.84L227.081 132.768L227.129 134.712C225.305 135.08 223.689 135.264 222.281 135.264C220.505 135.264 219.225 134.776 218.441 133.8C217.673 132.824 217.289 131.264 217.289 129.12C217.289 124.864 219.025 122.736 222.497 122.736C225.857 122.736 227.537 124.568 227.537 128.232L227.369 130.104H219.929C219.945 131.096 220.161 131.824 220.577 132.288C220.993 132.752 221.769 132.984 222.905 132.984C224.041 132.984 225.209 132.936 226.409 132.84ZM224.969 128.088C224.969 126.904 224.777 126.08 224.393 125.616C224.025 125.136 223.393 124.896 222.497 124.896C221.601 124.896 220.945 125.144 220.529 125.64C220.129 126.136 219.921 126.952 219.905 128.088H224.969Z" fill="#1F2633"/>
<path d="M111 244C111 241.239 113.239 239 116 239H230C232.761 239 235 241.239 235 244V268C235 270.761 232.761 273 230 273H116C113.239 273 111 270.761 111 268V244Z" fill="#2DA5FC"/>
<path d="M151.06 262.78C149.687 263.06 148.453 263.2 147.36 263.2C146.267 263.2 145.38 263.053 144.7 262.76C144.033 262.453 143.513 261.987 143.14 261.36C142.78 260.72 142.527 259.993 142.38 259.18C142.247 258.353 142.18 257.327 142.18 256.1C142.18 254.873 142.247 253.847 142.38 253.02C142.527 252.18 142.78 251.44 143.14 250.8C143.513 250.16 144.033 249.693 144.7 249.4C145.367 249.107 146.233 248.96 147.3 248.96C148.367 248.96 149.62 249.107 151.06 249.4L151 250.7C149.653 250.46 148.453 250.34 147.4 250.34C145.933 250.34 144.96 250.78 144.48 251.66C144.013 252.527 143.78 254.013 143.78 256.12C143.78 257.173 143.82 258.02 143.9 258.66C143.993 259.3 144.167 259.88 144.42 260.4C144.673 260.907 145.04 261.273 145.52 261.5C146.013 261.713 146.727 261.82 147.66 261.82C148.607 261.82 149.72 261.7 151 261.46L151.06 262.78ZM160.379 256.02V261.14C160.419 261.633 160.806 261.927 161.539 262.02L161.479 263.2C160.426 263.2 159.632 262.933 159.099 262.4C157.899 262.933 156.699 263.2 155.499 263.2C154.579 263.2 153.879 262.94 153.399 262.42C152.919 261.9 152.679 261.153 152.679 260.18C152.679 259.207 152.926 258.493 153.419 258.04C153.912 257.573 154.686 257.287 155.739 257.18L158.879 256.88V256.02C158.879 255.34 158.732 254.853 158.439 254.56C158.146 254.267 157.746 254.12 157.239 254.12C156.172 254.12 155.066 254.187 153.919 254.32L153.299 254.38L153.239 253.24C154.706 252.947 156.006 252.8 157.139 252.8C158.272 252.8 159.092 253.06 159.599 253.58C160.119 254.1 160.379 254.913 160.379 256.02ZM154.219 260.1C154.219 261.327 154.726 261.94 155.739 261.94C156.646 261.94 157.539 261.787 158.419 261.48L158.879 261.32V258.02L155.919 258.3C155.319 258.353 154.886 258.527 154.619 258.82C154.352 259.113 154.219 259.54 154.219 260.1ZM164.838 263H163.338V253H164.818V253.7C165.898 253.1 166.932 252.8 167.918 252.8C169.252 252.8 170.145 253.16 170.598 253.88C171.065 254.6 171.298 255.88 171.298 257.72V263H169.818V257.76C169.818 256.373 169.678 255.427 169.398 254.92C169.132 254.4 168.552 254.14 167.658 254.14C167.232 254.14 166.778 254.207 166.298 254.34C165.832 254.46 165.472 254.58 165.218 254.7L164.838 254.88V263ZM177.821 252.8C178.261 252.8 179.007 252.88 180.061 253.04L180.541 253.1L180.481 254.32C179.414 254.2 178.627 254.14 178.121 254.14C176.987 254.14 176.214 254.413 175.801 254.96C175.401 255.493 175.201 256.493 175.201 257.96C175.201 259.413 175.387 260.427 175.761 261C176.147 261.573 176.941 261.86 178.141 261.86L180.501 261.68L180.561 262.92C179.321 263.107 178.394 263.2 177.781 263.2C176.221 263.2 175.141 262.8 174.541 262C173.954 261.2 173.661 259.853 173.661 257.96C173.661 256.053 173.981 254.72 174.621 253.96C175.261 253.187 176.327 252.8 177.821 252.8ZM189.474 261.76L190.054 261.7L190.094 262.88C188.574 263.093 187.274 263.2 186.194 263.2C184.754 263.2 183.734 262.787 183.134 261.96C182.534 261.12 182.234 259.82 182.234 258.06C182.234 254.553 183.628 252.8 186.414 252.8C187.761 252.8 188.768 253.18 189.434 253.94C190.101 254.687 190.434 255.867 190.434 257.48L190.354 258.62H183.754C183.754 259.727 183.954 260.547 184.354 261.08C184.754 261.613 185.448 261.88 186.434 261.88C187.434 261.88 188.448 261.84 189.474 261.76ZM188.934 257.42C188.934 256.193 188.734 255.327 188.334 254.82C187.948 254.313 187.308 254.06 186.414 254.06C185.534 254.06 184.868 254.327 184.414 254.86C183.974 255.393 183.748 256.247 183.734 257.42H188.934ZM192.892 263V248.64H194.392V263H192.892Z" fill="white"/>
<circle cx="172.5" cy="72.5" r="22.5" fill="#2DA5FC" fill-opacity="0.5"/>
<path d="M169.5 80L164.5 80C163.948 80 163.5 79.5523 163.5 79L163.5 63C163.5 62.4477 163.948 62 164.5 62L174 62M174 62L178.5 66.5M174 62L174 66.5L178.5 66.5M178.5 66.5L178.5 71" stroke="black" stroke-width="2"/>
<line x1="171" y1="77.5" x2="180" y2="77.5" stroke="black" stroke-width="2"/>
<line x1="175" y1="72.5" x2="175" y2="81.5" stroke="black" stroke-width="2"/>
</svg>
